;TYPE=PLATED
;Layer: PTH_Through
;EasyEDA Pro v2.2.40.8, 2025-09-14 15:16:37
;Gerber Generator version 0.3
M48
METRIC,LZ,0000.00000
;Hole size 1 = 0.89916 METRIC
T01C0.89916
;Hole size 2 = 1.00000 METRIC
T02C1.00000
;Hole size 3 = 1.10002 METRIC
T03C1.10002
;Hole size 4 = 1.30002 METRIC
T04C1.30002
%
G05
G90
T01
X16.51Y-54.61
X6.35Y-54.61
X3.81Y-40.64
X3.81Y-50.8
X29.21Y-54.61
X19.05Y-54.61
T02
X3.81Y-33.02
X3.81Y-35.56
X3.81Y-38.1
X6.223Y-28.448
X6.223Y-25.90805
X24.92296Y-28.448
X24.92296Y-25.90803
X6.223Y-16.93669
X6.223Y-14.39802
X24.92296Y-16.93669
X24.92296Y-14.39802
T03
X26.162Y-34.29
X23.622Y-34.29
X21.082Y-34.29
X18.542Y-34.29
X16.002Y-34.29
X13.462Y-34.29
X10.922Y-34.29
X26.162Y-49.53
X23.622Y-49.53
X21.082Y-49.53
X18.542Y-49.53
X16.002Y-49.53
X13.462Y-49.53
X10.922Y-49.53
T04
X24.003Y-6.477
X18.923Y-6.477
X10.16Y-61.214
X15.24Y-61.214
X20.32Y-61.214
X25.4Y-61.214
M30