G04 Layer: TopSolderMaskLayer*
G04 EasyEDA Pro v2.2.40.8, 2025-09-14 15:16:37*
G04 Gerber Generator version 0.3*
G04 Scale: 100 percent, Rotated: No, Reflected: No*
G04 Dimensions in millimeters*
G04 Leading zeros omitted, absolute positions, 4 integers and 5 decimals*
G04 Generated by one-click*
%FSLAX45Y45*%
%MOMM*%
%AMRoundRect*1,1,$1,$2,$3*1,1,$1,$4,$5*1,1,$1,0-$2,0-$3*1,1,$1,0-$4,0-$5*20,1,$1,$2,$3,$4,$5,0*20,1,$1,$4,$5,0-$2,0-$3,0*20,1,$1,0-$2,0-$3,0-$4,0-$5,0*20,1,$1,0-$4,0-$5,$2,$3,0*4,1,4,$2,$3,$4,$5,0-$2,0-$3,0-$4,0-$5,$2,$3,0*%
%ADD10C,2.1016*%
%ADD11C,1.9016*%
%ADD12RoundRect,0.09645X-0.90257X0.90257X0.90257X0.90257*%
%ADD13C,1.9812*%
%ADD14RoundRect,0.09691X-1.00234X-1.50234X-1.00234X1.50234*%
%ADD15RoundRect,0.1067X-1.40172X1.40172X1.40172X1.40172*%
%ADD16RoundRect,0.09816X-1.40172X1.40172X1.40172X1.40172*%
%ADD17RoundRect,0.09562X-0.76499X-1.01899X-0.76499X1.01899*%
%ADD18RoundRect,0.09723X-1.08168X-1.08168X-1.08168X1.08168*%
%ADD19C,2.3876*%
%ADD20C,1.8016*%
%ADD21RoundRect,0.09579X-0.7903X0.8529X0.7903X0.8529*%
G75*


G04 Pad Start*
G54D10*
G01X2400300Y-647700D03*
G01X1892300Y-647700D03*
G54D11*
G01X381000Y-3302000D03*
G01X381000Y-3556000D03*
G54D12*
G01X381000Y-3810000D03*
G54D13*
G01X1651000Y-5461000D03*
G01X635000Y-5461000D03*
G01X381000Y-4064000D03*
G01X381000Y-5080000D03*
G01X2921000Y-5461000D03*
G01X1905000Y-5461000D03*
G54D14*
G01X1094740Y-3341014D03*
G01X1348740Y-3341014D03*
G01X1602740Y-3341014D03*
G01X1856740Y-3341014D03*
G01X2110740Y-3341014D03*
G01X2364740Y-3341014D03*
G01X2618740Y-3341014D03*
G01X1094740Y-5040986D03*
G01X1348740Y-5040986D03*
G01X1602740Y-5040986D03*
G01X1856740Y-5040986D03*
G01X2110740Y-5040986D03*
G01X2364740Y-5040986D03*
G01X2618740Y-5040986D03*
G54D16*
G01X1796745Y-4401007D03*
G54D17*
G01X2086737Y-3741014D03*
G01X1896745Y-3741014D03*
G36*
G01X2801578Y-4060737D02*
G01X2801636Y-4063252D01*
G01X2801638Y-4063411D01*
G01X2801617Y-4065928D01*
G01X2801614Y-4066083D01*
G01X2801517Y-4068595D01*
G01X2801509Y-4068755D01*
G01X2801333Y-4071264D01*
G01X2801320Y-4071418D01*
G01X2801069Y-4073923D01*
G01X2801050Y-4074083D01*
G01X2800720Y-4076577D01*
G01X2800697Y-4076732D01*
G01X2800291Y-4079213D01*
G01X2800262Y-4079373D01*
G01X2799777Y-4081841D01*
G01X2799745Y-4081991D01*
G01X2799186Y-4084444D01*
G01X2799148Y-4084599D01*
G01X2798513Y-4087033D01*
G01X2798471Y-4087187D01*
G01X2797759Y-4089600D01*
G01X2797713Y-4089749D01*
G01X2796928Y-4092139D01*
G01X2796876Y-4092289D01*
G01X2796018Y-4094653D01*
G01X2795961Y-4094803D01*
G01X2795029Y-4097139D01*
G01X2794970Y-4097280D01*
G01X2793970Y-4099586D01*
G01X2793903Y-4099733D01*
G01X2792829Y-4102009D01*
G01X2792758Y-4102154D01*
G01X2791612Y-4104394D01*
G01X2791541Y-4104528D01*
G01X2790329Y-4106733D01*
G01X2790249Y-4106874D01*
G01X2788969Y-4109038D01*
G01X2788888Y-4109169D01*
G01X2787542Y-4111295D01*
G01X2787454Y-4111429D01*
G01X2786042Y-4113512D01*
G01X2785951Y-4113642D01*
G01X2784475Y-4115679D01*
G01X2784383Y-4115803D01*
G01X2782846Y-4117794D01*
G01X2782743Y-4117923D01*
G01X2781143Y-4119863D01*
G01X2781044Y-4119981D01*
G01X2779385Y-4121873D01*
G01X2779280Y-4121989D01*
G01X2777565Y-4123828D01*
G01X2777457Y-4123941D01*
G01X2775684Y-4125729D01*
G01X2775569Y-4125841D01*
G01X2773743Y-4127571D01*
G01X2773625Y-4127679D01*
G01X2771745Y-4129351D01*
G01X2771629Y-4129451D01*
G01X2769701Y-4131064D01*
G01X2769579Y-4131163D01*
G01X2767601Y-4132717D01*
G01X2767472Y-4132815D01*
G01X2765445Y-4134306D01*
G01X2765318Y-4134396D01*
G01X2763248Y-4135824D01*
G01X2763116Y-4135912D01*
G01X2761000Y-4137276D01*
G01X2760863Y-4137361D01*
G01X2758707Y-4138656D01*
G01X2758577Y-4138732D01*
G01X2756382Y-4139964D01*
G01X2756241Y-4140040D01*
G01X2754010Y-4141201D01*
G01X2753864Y-4141274D01*
G01X2751596Y-4142364D01*
G01X2751458Y-4142428D01*
G01X2749159Y-4143449D01*
G01X2749015Y-4143510D01*
G01X2746686Y-4144460D01*
G01X2746537Y-4144518D01*
G01X2744180Y-4145395D01*
G01X2744029Y-4145448D01*
G01X2741644Y-4146251D01*
G01X2741495Y-4146298D01*
G01X2739087Y-4147027D01*
G01X2738938Y-4147070D01*
G01X2736510Y-4147725D01*
G01X2736355Y-4147764D01*
G01X2733907Y-4148343D01*
G01X2733753Y-4148377D01*
G01X2731289Y-4148880D01*
G01X2731134Y-4148909D01*
G01X2728655Y-4149336D01*
G01X2728495Y-4149361D01*
G01X2726004Y-4149709D01*
G01X2725849Y-4149728D01*
G01X2723347Y-4150000D01*
G01X2723193Y-4150014D01*
G01X2720686Y-4150210D01*
G01X2720526Y-4150220D01*
G01X2718011Y-4150337D01*
G01X2717852Y-4150342D01*
G01X2715337Y-4150380D01*
G01X2715183Y-4150380D01*
G01X2712668Y-4150342D01*
G01X2712509Y-4150337D01*
G01X2709994Y-4150220D01*
G01X2709834Y-4150210D01*
G01X2707327Y-4150014D01*
G01X2707173Y-4150000D01*
G01X2704671Y-4149728D01*
G01X2704516Y-4149709D01*
G01X2702025Y-4149361D01*
G01X2701865Y-4149336D01*
G01X2699386Y-4148909D01*
G01X2699231Y-4148880D01*
G01X2696767Y-4148377D01*
G01X2696613Y-4148343D01*
G01X2694165Y-4147764D01*
G01X2694010Y-4147725D01*
G01X2691582Y-4147070D01*
G01X2691433Y-4147027D01*
G01X2689025Y-4146298D01*
G01X2688876Y-4146251D01*
G01X2686491Y-4145448D01*
G01X2686340Y-4145395D01*
G01X2683983Y-4144518D01*
G01X2683834Y-4144460D01*
G01X2681505Y-4143510D01*
G01X2681361Y-4143449D01*
G01X2679062Y-4142428D01*
G01X2678924Y-4142364D01*
G01X2676656Y-4141274D01*
G01X2676510Y-4141201D01*
G01X2674279Y-4140040D01*
G01X2674138Y-4139964D01*
G01X2671943Y-4138732D01*
G01X2671813Y-4138656D01*
G01X2669657Y-4137361D01*
G01X2669520Y-4137276D01*
G01X2667404Y-4135912D01*
G01X2667272Y-4135824D01*
G01X2665202Y-4134396D01*
G01X2665075Y-4134306D01*
G01X2663048Y-4132815D01*
G01X2662919Y-4132717D01*
G01X2660941Y-4131163D01*
G01X2660819Y-4131064D01*
G01X2658891Y-4129451D01*
G01X2658775Y-4129351D01*
G01X2656895Y-4127679D01*
G01X2656777Y-4127571D01*
G01X2654951Y-4125841D01*
G01X2654836Y-4125729D01*
G01X2653063Y-4123941D01*
G01X2652955Y-4123828D01*
G01X2651240Y-4121989D01*
G01X2651135Y-4121873D01*
G01X2649476Y-4119981D01*
G01X2649377Y-4119863D01*
G01X2647777Y-4117923D01*
G01X2647674Y-4117794D01*
G01X2646137Y-4115803D01*
G01X2646045Y-4115679D01*
G01X2644569Y-4113642D01*
G01X2644478Y-4113512D01*
G01X2643066Y-4111429D01*
G01X2642978Y-4111295D01*
G01X2641632Y-4109169D01*
G01X2641551Y-4109038D01*
G01X2640271Y-4106874D01*
G01X2640191Y-4106733D01*
G01X2638979Y-4104528D01*
G01X2638908Y-4104394D01*
G01X2637762Y-4102154D01*
G01X2637691Y-4102009D01*
G01X2636617Y-4099733D01*
G01X2636550Y-4099586D01*
G01X2635550Y-4097280D01*
G01X2635491Y-4097139D01*
G01X2634559Y-4094803D01*
G01X2634502Y-4094653D01*
G01X2633644Y-4092289D01*
G01X2633592Y-4092139D01*
G01X2632807Y-4089749D01*
G01X2632761Y-4089600D01*
G01X2632049Y-4087187D01*
G01X2632007Y-4087033D01*
G01X2631372Y-4084599D01*
G01X2631334Y-4084444D01*
G01X2630775Y-4081991D01*
G01X2630743Y-4081841D01*
G01X2630258Y-4079373D01*
G01X2630229Y-4079213D01*
G01X2629823Y-4076732D01*
G01X2629800Y-4076577D01*
G01X2629470Y-4074083D01*
G01X2629451Y-4073923D01*
G01X2629200Y-4071418D01*
G01X2629187Y-4071264D01*
G01X2629011Y-4068755D01*
G01X2629003Y-4068595D01*
G01X2628906Y-4066083D01*
G01X2628903Y-4065928D01*
G01X2628882Y-4063411D01*
G01X2628884Y-4063252D01*
G01X2628942Y-4060737D01*
G01X2628948Y-4060577D01*
G01X2629085Y-4058065D01*
G01X2629096Y-4057911D01*
G01X2629310Y-4055404D01*
G01X2629325Y-4055249D01*
G01X2629615Y-4052752D01*
G01X2629636Y-4052588D01*
G01X2630007Y-4050099D01*
G01X2630032Y-4049949D01*
G01X2630476Y-4047473D01*
G01X2630507Y-4047318D01*
G01X2631027Y-4044857D01*
G01X2631064Y-4044697D01*
G01X2631663Y-4042254D01*
G01X2631702Y-4042104D01*
G01X2632375Y-4039681D01*
G01X2632419Y-4039532D01*
G01X2633166Y-4037130D01*
G01X2633215Y-4036979D01*
G01X2634035Y-4034602D01*
G01X2634092Y-4034447D01*
G01X2634988Y-4032098D01*
G01X2635045Y-4031956D01*
G01X2636013Y-4029632D01*
G01X2636074Y-4029490D01*
G01X2637110Y-4027199D01*
G01X2637180Y-4027051D01*
G01X2638290Y-4024793D01*
G01X2638361Y-4024654D01*
G01X2639540Y-4022431D01*
G01X2639617Y-4022292D01*
G01X2640864Y-4020107D01*
G01X2640943Y-4019974D01*
G01X2642256Y-4017828D01*
G01X2642341Y-4017693D01*
G01X2643721Y-4015590D01*
G01X2643808Y-4015461D01*
G01X2645251Y-4013401D01*
G01X2645346Y-4013269D01*
G01X2646855Y-4011255D01*
G01X2646949Y-4011133D01*
G01X2648516Y-4009167D01*
G01X2648616Y-4009046D01*
G01X2650244Y-4007128D01*
G01X2650350Y-4007007D01*
G01X2652039Y-4005140D01*
G01X2652144Y-4005028D01*
G01X2653886Y-4003215D01*
G01X2654001Y-4003098D01*
G01X2655802Y-4001341D01*
G01X2655913Y-4001235D01*
G01X2657765Y-3999534D01*
G01X2657885Y-3999427D01*
G01X2659790Y-3997784D01*
G01X2659913Y-3997681D01*
G01X2661869Y-3996098D01*
G01X2661987Y-3996005D01*
G01X2663989Y-3994481D01*
G01X2664123Y-3994383D01*
G01X2666172Y-3992925D01*
G01X2666297Y-3992839D01*
G01X2668390Y-3991442D01*
G01X2668526Y-3991354D01*
G01X2670659Y-3990026D01*
G01X2670793Y-3989946D01*
G01X2672969Y-3988681D01*
G01X2673106Y-3988604D01*
G01X2675318Y-3987408D01*
G01X2675463Y-3987333D01*
G01X2677714Y-3986207D01*
G01X2677853Y-3986140D01*
G01X2680136Y-3985084D01*
G01X2680280Y-3985020D01*
G01X2682593Y-3984035D01*
G01X2682743Y-3983974D01*
G01X2685088Y-3983062D01*
G01X2685231Y-3983008D01*
G01X2687601Y-3982168D01*
G01X2687752Y-3982117D01*
G01X2690150Y-3981350D01*
G01X2690303Y-3981303D01*
G01X2692721Y-3980612D01*
G01X2692871Y-3980572D01*
G01X2695309Y-3979955D01*
G01X2695463Y-3979918D01*
G01X2697920Y-3979377D01*
G01X2698080Y-3979345D01*
G01X2700554Y-3978882D01*
G01X2700702Y-3978857D01*
G01X2703186Y-3978468D01*
G01X2703347Y-3978446D01*
G01X2705843Y-3978136D01*
G01X2705998Y-3978119D01*
G01X2708502Y-3977886D01*
G01X2708657Y-3977874D01*
G01X2711169Y-3977716D01*
G01X2711334Y-3977708D01*
G01X2713848Y-3977632D01*
G01X2714003Y-3977630D01*
G01X2716517Y-3977630D01*
G01X2716672Y-3977632D01*
G01X2719186Y-3977708D01*
G01X2719351Y-3977716D01*
G01X2721863Y-3977874D01*
G01X2722018Y-3977886D01*
G01X2724522Y-3978119D01*
G01X2724677Y-3978136D01*
G01X2727173Y-3978446D01*
G01X2727334Y-3978468D01*
G01X2729818Y-3978857D01*
G01X2729966Y-3978882D01*
G01X2732440Y-3979345D01*
G01X2732600Y-3979377D01*
G01X2735057Y-3979918D01*
G01X2735211Y-3979955D01*
G01X2737649Y-3980572D01*
G01X2737799Y-3980612D01*
G01X2740217Y-3981303D01*
G01X2740370Y-3981350D01*
G01X2742768Y-3982117D01*
G01X2742919Y-3982168D01*
G01X2745289Y-3983008D01*
G01X2745432Y-3983062D01*
G01X2747777Y-3983974D01*
G01X2747927Y-3984035D01*
G01X2750240Y-3985020D01*
G01X2750384Y-3985084D01*
G01X2752667Y-3986140D01*
G01X2752806Y-3986207D01*
G01X2755057Y-3987333D01*
G01X2755202Y-3987408D01*
G01X2757414Y-3988604D01*
G01X2757551Y-3988681D01*
G01X2759727Y-3989946D01*
G01X2759861Y-3990026D01*
G01X2761994Y-3991354D01*
G01X2762130Y-3991442D01*
G01X2764223Y-3992839D01*
G01X2764348Y-3992925D01*
G01X2766397Y-3994383D01*
G01X2766531Y-3994481D01*
G01X2768533Y-3996005D01*
G01X2768651Y-3996098D01*
G01X2770607Y-3997681D01*
G01X2770730Y-3997784D01*
G01X2772635Y-3999427D01*
G01X2772755Y-3999534D01*
G01X2774607Y-4001235D01*
G01X2774718Y-4001341D01*
G01X2776519Y-4003098D01*
G01X2776634Y-4003215D01*
G01X2778376Y-4005028D01*
G01X2778481Y-4005140D01*
G01X2780170Y-4007007D01*
G01X2780276Y-4007128D01*
G01X2781904Y-4009046D01*
G01X2782004Y-4009167D01*
G01X2783571Y-4011133D01*
G01X2783665Y-4011255D01*
G01X2785174Y-4013269D01*
G01X2785269Y-4013401D01*
G01X2786712Y-4015461D01*
G01X2786799Y-4015590D01*
G01X2788179Y-4017693D01*
G01X2788264Y-4017828D01*
G01X2789577Y-4019974D01*
G01X2789656Y-4020107D01*
G01X2790903Y-4022292D01*
G01X2790980Y-4022431D01*
G01X2792159Y-4024654D01*
G01X2792230Y-4024793D01*
G01X2793340Y-4027051D01*
G01X2793410Y-4027199D01*
G01X2794446Y-4029490D01*
G01X2794507Y-4029632D01*
G01X2795475Y-4031956D01*
G01X2795532Y-4032098D01*
G01X2796428Y-4034447D01*
G01X2796485Y-4034602D01*
G01X2797305Y-4036979D01*
G01X2797354Y-4037130D01*
G01X2798101Y-4039532D01*
G01X2798145Y-4039681D01*
G01X2798818Y-4042104D01*
G01X2798857Y-4042254D01*
G01X2799456Y-4044697D01*
G01X2799493Y-4044857D01*
G01X2800013Y-4047318D01*
G01X2800044Y-4047473D01*
G01X2800488Y-4049949D01*
G01X2800513Y-4050099D01*
G01X2800884Y-4052588D01*
G01X2800905Y-4052752D01*
G01X2801195Y-4055249D01*
G01X2801210Y-4055404D01*
G01X2801424Y-4057911D01*
G01X2801435Y-4058065D01*
G01X2801572Y-4060577D01*
G01X2801578Y-4060737D01*
G37*
G36*
G01X2801578Y-4314737D02*
G01X2801636Y-4317252D01*
G01X2801638Y-4317411D01*
G01X2801617Y-4319928D01*
G01X2801614Y-4320083D01*
G01X2801517Y-4322595D01*
G01X2801509Y-4322755D01*
G01X2801333Y-4325264D01*
G01X2801320Y-4325418D01*
G01X2801069Y-4327923D01*
G01X2801050Y-4328083D01*
G01X2800720Y-4330577D01*
G01X2800697Y-4330732D01*
G01X2800291Y-4333213D01*
G01X2800262Y-4333373D01*
G01X2799777Y-4335841D01*
G01X2799745Y-4335991D01*
G01X2799186Y-4338444D01*
G01X2799148Y-4338599D01*
G01X2798513Y-4341033D01*
G01X2798471Y-4341187D01*
G01X2797759Y-4343600D01*
G01X2797713Y-4343749D01*
G01X2796928Y-4346139D01*
G01X2796876Y-4346289D01*
G01X2796018Y-4348653D01*
G01X2795961Y-4348803D01*
G01X2795029Y-4351139D01*
G01X2794970Y-4351280D01*
G01X2793970Y-4353586D01*
G01X2793903Y-4353733D01*
G01X2792829Y-4356009D01*
G01X2792758Y-4356154D01*
G01X2791612Y-4358394D01*
G01X2791541Y-4358528D01*
G01X2790329Y-4360733D01*
G01X2790249Y-4360874D01*
G01X2788969Y-4363038D01*
G01X2788888Y-4363169D01*
G01X2787542Y-4365295D01*
G01X2787454Y-4365429D01*
G01X2786042Y-4367512D01*
G01X2785951Y-4367642D01*
G01X2784475Y-4369679D01*
G01X2784383Y-4369803D01*
G01X2782846Y-4371794D01*
G01X2782743Y-4371923D01*
G01X2781143Y-4373863D01*
G01X2781044Y-4373981D01*
G01X2779385Y-4375873D01*
G01X2779280Y-4375989D01*
G01X2777565Y-4377828D01*
G01X2777457Y-4377941D01*
G01X2775684Y-4379729D01*
G01X2775569Y-4379841D01*
G01X2773743Y-4381571D01*
G01X2773625Y-4381679D01*
G01X2771745Y-4383351D01*
G01X2771629Y-4383451D01*
G01X2769701Y-4385064D01*
G01X2769579Y-4385163D01*
G01X2767601Y-4386717D01*
G01X2767472Y-4386815D01*
G01X2765445Y-4388306D01*
G01X2765318Y-4388396D01*
G01X2763248Y-4389824D01*
G01X2763116Y-4389912D01*
G01X2761000Y-4391276D01*
G01X2760863Y-4391361D01*
G01X2758707Y-4392656D01*
G01X2758577Y-4392732D01*
G01X2756382Y-4393964D01*
G01X2756241Y-4394040D01*
G01X2754010Y-4395201D01*
G01X2753864Y-4395274D01*
G01X2751596Y-4396364D01*
G01X2751458Y-4396428D01*
G01X2749159Y-4397449D01*
G01X2749015Y-4397510D01*
G01X2746686Y-4398460D01*
G01X2746537Y-4398518D01*
G01X2744180Y-4399395D01*
G01X2744029Y-4399448D01*
G01X2741644Y-4400251D01*
G01X2741495Y-4400298D01*
G01X2739087Y-4401027D01*
G01X2738938Y-4401070D01*
G01X2736510Y-4401725D01*
G01X2736355Y-4401764D01*
G01X2733907Y-4402343D01*
G01X2733753Y-4402377D01*
G01X2731289Y-4402880D01*
G01X2731134Y-4402909D01*
G01X2728655Y-4403336D01*
G01X2728495Y-4403361D01*
G01X2726004Y-4403709D01*
G01X2725849Y-4403728D01*
G01X2723347Y-4404000D01*
G01X2723193Y-4404014D01*
G01X2720686Y-4404210D01*
G01X2720526Y-4404220D01*
G01X2718011Y-4404337D01*
G01X2717852Y-4404342D01*
G01X2715337Y-4404380D01*
G01X2715183Y-4404380D01*
G01X2712668Y-4404342D01*
G01X2712509Y-4404337D01*
G01X2709994Y-4404220D01*
G01X2709834Y-4404210D01*
G01X2707327Y-4404014D01*
G01X2707173Y-4404000D01*
G01X2704671Y-4403728D01*
G01X2704516Y-4403709D01*
G01X2702025Y-4403361D01*
G01X2701865Y-4403336D01*
G01X2699386Y-4402909D01*
G01X2699231Y-4402880D01*
G01X2696767Y-4402377D01*
G01X2696613Y-4402343D01*
G01X2694165Y-4401764D01*
G01X2694010Y-4401725D01*
G01X2691582Y-4401070D01*
G01X2691433Y-4401027D01*
G01X2689025Y-4400298D01*
G01X2688876Y-4400251D01*
G01X2686491Y-4399448D01*
G01X2686340Y-4399395D01*
G01X2683983Y-4398518D01*
G01X2683834Y-4398460D01*
G01X2681505Y-4397510D01*
G01X2681361Y-4397449D01*
G01X2679062Y-4396428D01*
G01X2678924Y-4396364D01*
G01X2676656Y-4395274D01*
G01X2676510Y-4395201D01*
G01X2674279Y-4394040D01*
G01X2674138Y-4393964D01*
G01X2671943Y-4392732D01*
G01X2671813Y-4392656D01*
G01X2669657Y-4391361D01*
G01X2669520Y-4391276D01*
G01X2667404Y-4389912D01*
G01X2667272Y-4389824D01*
G01X2665202Y-4388396D01*
G01X2665075Y-4388306D01*
G01X2663048Y-4386815D01*
G01X2662919Y-4386717D01*
G01X2660941Y-4385163D01*
G01X2660819Y-4385064D01*
G01X2658891Y-4383451D01*
G01X2658775Y-4383351D01*
G01X2656895Y-4381679D01*
G01X2656777Y-4381571D01*
G01X2654951Y-4379841D01*
G01X2654836Y-4379729D01*
G01X2653063Y-4377941D01*
G01X2652955Y-4377828D01*
G01X2651240Y-4375989D01*
G01X2651135Y-4375873D01*
G01X2649476Y-4373981D01*
G01X2649377Y-4373863D01*
G01X2647777Y-4371923D01*
G01X2647674Y-4371794D01*
G01X2646137Y-4369803D01*
G01X2646045Y-4369679D01*
G01X2644569Y-4367642D01*
G01X2644478Y-4367512D01*
G01X2643066Y-4365429D01*
G01X2642978Y-4365295D01*
G01X2641632Y-4363169D01*
G01X2641551Y-4363038D01*
G01X2640271Y-4360874D01*
G01X2640191Y-4360733D01*
G01X2638979Y-4358528D01*
G01X2638908Y-4358394D01*
G01X2637762Y-4356154D01*
G01X2637691Y-4356009D01*
G01X2636617Y-4353733D01*
G01X2636550Y-4353586D01*
G01X2635550Y-4351280D01*
G01X2635491Y-4351139D01*
G01X2634559Y-4348803D01*
G01X2634502Y-4348653D01*
G01X2633644Y-4346289D01*
G01X2633592Y-4346139D01*
G01X2632807Y-4343749D01*
G01X2632761Y-4343600D01*
G01X2632049Y-4341187D01*
G01X2632007Y-4341033D01*
G01X2631372Y-4338599D01*
G01X2631334Y-4338444D01*
G01X2630775Y-4335991D01*
G01X2630743Y-4335841D01*
G01X2630258Y-4333373D01*
G01X2630229Y-4333213D01*
G01X2629823Y-4330732D01*
G01X2629800Y-4330577D01*
G01X2629470Y-4328083D01*
G01X2629451Y-4327923D01*
G01X2629200Y-4325418D01*
G01X2629187Y-4325264D01*
G01X2629011Y-4322755D01*
G01X2629003Y-4322595D01*
G01X2628906Y-4320083D01*
G01X2628903Y-4319928D01*
G01X2628882Y-4317411D01*
G01X2628884Y-4317252D01*
G01X2628942Y-4314737D01*
G01X2628948Y-4314577D01*
G01X2629085Y-4312065D01*
G01X2629096Y-4311911D01*
G01X2629310Y-4309404D01*
G01X2629325Y-4309249D01*
G01X2629615Y-4306752D01*
G01X2629636Y-4306588D01*
G01X2630007Y-4304099D01*
G01X2630032Y-4303949D01*
G01X2630476Y-4301473D01*
G01X2630507Y-4301318D01*
G01X2631027Y-4298857D01*
G01X2631064Y-4298697D01*
G01X2631663Y-4296254D01*
G01X2631702Y-4296104D01*
G01X2632375Y-4293681D01*
G01X2632419Y-4293532D01*
G01X2633166Y-4291130D01*
G01X2633215Y-4290979D01*
G01X2634035Y-4288602D01*
G01X2634092Y-4288447D01*
G01X2634988Y-4286098D01*
G01X2635045Y-4285956D01*
G01X2636013Y-4283632D01*
G01X2636074Y-4283490D01*
G01X2637110Y-4281199D01*
G01X2637180Y-4281051D01*
G01X2638290Y-4278793D01*
G01X2638361Y-4278654D01*
G01X2639540Y-4276431D01*
G01X2639617Y-4276292D01*
G01X2640864Y-4274107D01*
G01X2640943Y-4273974D01*
G01X2642256Y-4271828D01*
G01X2642341Y-4271693D01*
G01X2643721Y-4269590D01*
G01X2643808Y-4269461D01*
G01X2645251Y-4267401D01*
G01X2645346Y-4267269D01*
G01X2646855Y-4265255D01*
G01X2646949Y-4265133D01*
G01X2648516Y-4263167D01*
G01X2648616Y-4263046D01*
G01X2650244Y-4261128D01*
G01X2650350Y-4261007D01*
G01X2652039Y-4259140D01*
G01X2652144Y-4259028D01*
G01X2653886Y-4257215D01*
G01X2654001Y-4257098D01*
G01X2655802Y-4255341D01*
G01X2655913Y-4255235D01*
G01X2657765Y-4253534D01*
G01X2657885Y-4253427D01*
G01X2659790Y-4251784D01*
G01X2659913Y-4251681D01*
G01X2661869Y-4250098D01*
G01X2661987Y-4250005D01*
G01X2663989Y-4248481D01*
G01X2664123Y-4248383D01*
G01X2666172Y-4246925D01*
G01X2666297Y-4246839D01*
G01X2668390Y-4245442D01*
G01X2668526Y-4245354D01*
G01X2670659Y-4244026D01*
G01X2670793Y-4243946D01*
G01X2672969Y-4242681D01*
G01X2673106Y-4242604D01*
G01X2675318Y-4241408D01*
G01X2675463Y-4241333D01*
G01X2677714Y-4240207D01*
G01X2677853Y-4240140D01*
G01X2680136Y-4239084D01*
G01X2680280Y-4239020D01*
G01X2682593Y-4238035D01*
G01X2682743Y-4237974D01*
G01X2685088Y-4237062D01*
G01X2685231Y-4237008D01*
G01X2687601Y-4236168D01*
G01X2687752Y-4236117D01*
G01X2690150Y-4235350D01*
G01X2690303Y-4235303D01*
G01X2692721Y-4234612D01*
G01X2692871Y-4234572D01*
G01X2695309Y-4233955D01*
G01X2695463Y-4233918D01*
G01X2697920Y-4233377D01*
G01X2698080Y-4233345D01*
G01X2700554Y-4232882D01*
G01X2700702Y-4232857D01*
G01X2703186Y-4232468D01*
G01X2703347Y-4232446D01*
G01X2705843Y-4232136D01*
G01X2705998Y-4232119D01*
G01X2708502Y-4231886D01*
G01X2708657Y-4231874D01*
G01X2711169Y-4231716D01*
G01X2711334Y-4231708D01*
G01X2713848Y-4231632D01*
G01X2714003Y-4231630D01*
G01X2716517Y-4231630D01*
G01X2716672Y-4231632D01*
G01X2719186Y-4231708D01*
G01X2719351Y-4231716D01*
G01X2721863Y-4231874D01*
G01X2722018Y-4231886D01*
G01X2724522Y-4232119D01*
G01X2724677Y-4232136D01*
G01X2727173Y-4232446D01*
G01X2727334Y-4232468D01*
G01X2729818Y-4232857D01*
G01X2729966Y-4232882D01*
G01X2732440Y-4233345D01*
G01X2732600Y-4233377D01*
G01X2735057Y-4233918D01*
G01X2735211Y-4233955D01*
G01X2737649Y-4234572D01*
G01X2737799Y-4234612D01*
G01X2740217Y-4235303D01*
G01X2740370Y-4235350D01*
G01X2742768Y-4236117D01*
G01X2742919Y-4236168D01*
G01X2745289Y-4237008D01*
G01X2745432Y-4237062D01*
G01X2747777Y-4237974D01*
G01X2747927Y-4238035D01*
G01X2750240Y-4239020D01*
G01X2750384Y-4239084D01*
G01X2752667Y-4240140D01*
G01X2752806Y-4240207D01*
G01X2755057Y-4241333D01*
G01X2755202Y-4241408D01*
G01X2757414Y-4242604D01*
G01X2757551Y-4242681D01*
G01X2759727Y-4243946D01*
G01X2759861Y-4244026D01*
G01X2761994Y-4245354D01*
G01X2762130Y-4245442D01*
G01X2764223Y-4246839D01*
G01X2764348Y-4246925D01*
G01X2766397Y-4248383D01*
G01X2766531Y-4248481D01*
G01X2768533Y-4250005D01*
G01X2768651Y-4250098D01*
G01X2770607Y-4251681D01*
G01X2770730Y-4251784D01*
G01X2772635Y-4253427D01*
G01X2772755Y-4253534D01*
G01X2774607Y-4255235D01*
G01X2774718Y-4255341D01*
G01X2776519Y-4257098D01*
G01X2776634Y-4257215D01*
G01X2778376Y-4259028D01*
G01X2778481Y-4259140D01*
G01X2780170Y-4261007D01*
G01X2780276Y-4261128D01*
G01X2781904Y-4263046D01*
G01X2782004Y-4263167D01*
G01X2783571Y-4265133D01*
G01X2783665Y-4265255D01*
G01X2785174Y-4267269D01*
G01X2785269Y-4267401D01*
G01X2786712Y-4269461D01*
G01X2786799Y-4269590D01*
G01X2788179Y-4271693D01*
G01X2788264Y-4271828D01*
G01X2789577Y-4273974D01*
G01X2789656Y-4274107D01*
G01X2790903Y-4276292D01*
G01X2790980Y-4276431D01*
G01X2792159Y-4278654D01*
G01X2792230Y-4278793D01*
G01X2793340Y-4281051D01*
G01X2793410Y-4281199D01*
G01X2794446Y-4283490D01*
G01X2794507Y-4283632D01*
G01X2795475Y-4285956D01*
G01X2795532Y-4286098D01*
G01X2796428Y-4288447D01*
G01X2796485Y-4288602D01*
G01X2797305Y-4290979D01*
G01X2797354Y-4291130D01*
G01X2798101Y-4293532D01*
G01X2798145Y-4293681D01*
G01X2798818Y-4296104D01*
G01X2798857Y-4296254D01*
G01X2799456Y-4298697D01*
G01X2799493Y-4298857D01*
G01X2800013Y-4301318D01*
G01X2800044Y-4301473D01*
G01X2800488Y-4303949D01*
G01X2800513Y-4304099D01*
G01X2800884Y-4306588D01*
G01X2800905Y-4306752D01*
G01X2801195Y-4309249D01*
G01X2801210Y-4309404D01*
G01X2801424Y-4311911D01*
G01X2801435Y-4312065D01*
G01X2801572Y-4314577D01*
G01X2801578Y-4314737D01*
G37*
G36*
G01X2547578Y-4314737D02*
G01X2547636Y-4317252D01*
G01X2547638Y-4317411D01*
G01X2547617Y-4319928D01*
G01X2547614Y-4320083D01*
G01X2547517Y-4322595D01*
G01X2547509Y-4322755D01*
G01X2547333Y-4325264D01*
G01X2547320Y-4325418D01*
G01X2547069Y-4327923D01*
G01X2547050Y-4328083D01*
G01X2546720Y-4330577D01*
G01X2546697Y-4330732D01*
G01X2546291Y-4333213D01*
G01X2546262Y-4333373D01*
G01X2545777Y-4335841D01*
G01X2545745Y-4335991D01*
G01X2545186Y-4338444D01*
G01X2545148Y-4338599D01*
G01X2544513Y-4341033D01*
G01X2544471Y-4341187D01*
G01X2543759Y-4343600D01*
G01X2543713Y-4343749D01*
G01X2542928Y-4346139D01*
G01X2542876Y-4346289D01*
G01X2542018Y-4348653D01*
G01X2541961Y-4348803D01*
G01X2541029Y-4351139D01*
G01X2540970Y-4351280D01*
G01X2539970Y-4353586D01*
G01X2539903Y-4353733D01*
G01X2538829Y-4356009D01*
G01X2538758Y-4356154D01*
G01X2537612Y-4358394D01*
G01X2537541Y-4358528D01*
G01X2536329Y-4360733D01*
G01X2536249Y-4360874D01*
G01X2534969Y-4363038D01*
G01X2534888Y-4363169D01*
G01X2533542Y-4365295D01*
G01X2533454Y-4365429D01*
G01X2532042Y-4367512D01*
G01X2531951Y-4367642D01*
G01X2530475Y-4369679D01*
G01X2530383Y-4369803D01*
G01X2528846Y-4371794D01*
G01X2528743Y-4371923D01*
G01X2527143Y-4373863D01*
G01X2527044Y-4373981D01*
G01X2525385Y-4375873D01*
G01X2525280Y-4375989D01*
G01X2523565Y-4377828D01*
G01X2523457Y-4377941D01*
G01X2521684Y-4379729D01*
G01X2521569Y-4379841D01*
G01X2519743Y-4381571D01*
G01X2519625Y-4381679D01*
G01X2517745Y-4383351D01*
G01X2517629Y-4383451D01*
G01X2515701Y-4385064D01*
G01X2515579Y-4385163D01*
G01X2513601Y-4386717D01*
G01X2513472Y-4386815D01*
G01X2511445Y-4388306D01*
G01X2511318Y-4388396D01*
G01X2509248Y-4389824D01*
G01X2509116Y-4389912D01*
G01X2507000Y-4391276D01*
G01X2506863Y-4391361D01*
G01X2504707Y-4392656D01*
G01X2504577Y-4392732D01*
G01X2502382Y-4393964D01*
G01X2502241Y-4394040D01*
G01X2500010Y-4395201D01*
G01X2499864Y-4395274D01*
G01X2497596Y-4396364D01*
G01X2497458Y-4396428D01*
G01X2495159Y-4397449D01*
G01X2495015Y-4397510D01*
G01X2492686Y-4398460D01*
G01X2492537Y-4398518D01*
G01X2490180Y-4399395D01*
G01X2490029Y-4399448D01*
G01X2487644Y-4400251D01*
G01X2487495Y-4400298D01*
G01X2485087Y-4401027D01*
G01X2484938Y-4401070D01*
G01X2482510Y-4401725D01*
G01X2482355Y-4401764D01*
G01X2479907Y-4402343D01*
G01X2479753Y-4402377D01*
G01X2477289Y-4402880D01*
G01X2477134Y-4402909D01*
G01X2474655Y-4403336D01*
G01X2474495Y-4403361D01*
G01X2472004Y-4403709D01*
G01X2471849Y-4403728D01*
G01X2469347Y-4404000D01*
G01X2469193Y-4404014D01*
G01X2466686Y-4404210D01*
G01X2466526Y-4404220D01*
G01X2464011Y-4404337D01*
G01X2463852Y-4404342D01*
G01X2461337Y-4404380D01*
G01X2461183Y-4404380D01*
G01X2458668Y-4404342D01*
G01X2458509Y-4404337D01*
G01X2455994Y-4404220D01*
G01X2455834Y-4404210D01*
G01X2453327Y-4404014D01*
G01X2453173Y-4404000D01*
G01X2450671Y-4403728D01*
G01X2450516Y-4403709D01*
G01X2448025Y-4403361D01*
G01X2447865Y-4403336D01*
G01X2445386Y-4402909D01*
G01X2445231Y-4402880D01*
G01X2442767Y-4402377D01*
G01X2442613Y-4402343D01*
G01X2440165Y-4401764D01*
G01X2440010Y-4401725D01*
G01X2437582Y-4401070D01*
G01X2437433Y-4401027D01*
G01X2435025Y-4400298D01*
G01X2434876Y-4400251D01*
G01X2432491Y-4399448D01*
G01X2432340Y-4399395D01*
G01X2429983Y-4398518D01*
G01X2429834Y-4398460D01*
G01X2427505Y-4397510D01*
G01X2427361Y-4397449D01*
G01X2425062Y-4396428D01*
G01X2424924Y-4396364D01*
G01X2422656Y-4395274D01*
G01X2422510Y-4395201D01*
G01X2420279Y-4394040D01*
G01X2420138Y-4393964D01*
G01X2417943Y-4392732D01*
G01X2417813Y-4392656D01*
G01X2415657Y-4391361D01*
G01X2415520Y-4391276D01*
G01X2413404Y-4389912D01*
G01X2413272Y-4389824D01*
G01X2411202Y-4388396D01*
G01X2411075Y-4388306D01*
G01X2409048Y-4386815D01*
G01X2408919Y-4386717D01*
G01X2406941Y-4385163D01*
G01X2406819Y-4385064D01*
G01X2404891Y-4383451D01*
G01X2404775Y-4383351D01*
G01X2402895Y-4381679D01*
G01X2402777Y-4381571D01*
G01X2400951Y-4379841D01*
G01X2400836Y-4379729D01*
G01X2399063Y-4377941D01*
G01X2398955Y-4377828D01*
G01X2397240Y-4375989D01*
G01X2397135Y-4375873D01*
G01X2395476Y-4373981D01*
G01X2395377Y-4373863D01*
G01X2393777Y-4371923D01*
G01X2393674Y-4371794D01*
G01X2392137Y-4369803D01*
G01X2392045Y-4369679D01*
G01X2390569Y-4367642D01*
G01X2390478Y-4367512D01*
G01X2389066Y-4365429D01*
G01X2388978Y-4365295D01*
G01X2387632Y-4363169D01*
G01X2387551Y-4363038D01*
G01X2386271Y-4360874D01*
G01X2386191Y-4360733D01*
G01X2384979Y-4358528D01*
G01X2384908Y-4358394D01*
G01X2383762Y-4356154D01*
G01X2383691Y-4356009D01*
G01X2382617Y-4353733D01*
G01X2382550Y-4353586D01*
G01X2381550Y-4351280D01*
G01X2381491Y-4351139D01*
G01X2380559Y-4348803D01*
G01X2380502Y-4348653D01*
G01X2379644Y-4346289D01*
G01X2379592Y-4346139D01*
G01X2378807Y-4343749D01*
G01X2378761Y-4343600D01*
G01X2378049Y-4341187D01*
G01X2378007Y-4341033D01*
G01X2377372Y-4338599D01*
G01X2377334Y-4338444D01*
G01X2376775Y-4335991D01*
G01X2376743Y-4335841D01*
G01X2376258Y-4333373D01*
G01X2376229Y-4333213D01*
G01X2375823Y-4330732D01*
G01X2375800Y-4330577D01*
G01X2375470Y-4328083D01*
G01X2375451Y-4327923D01*
G01X2375200Y-4325418D01*
G01X2375187Y-4325264D01*
G01X2375011Y-4322755D01*
G01X2375003Y-4322595D01*
G01X2374906Y-4320083D01*
G01X2374903Y-4319928D01*
G01X2374882Y-4317411D01*
G01X2374884Y-4317252D01*
G01X2374942Y-4314737D01*
G01X2374948Y-4314577D01*
G01X2375085Y-4312065D01*
G01X2375096Y-4311911D01*
G01X2375310Y-4309404D01*
G01X2375325Y-4309249D01*
G01X2375615Y-4306752D01*
G01X2375636Y-4306588D01*
G01X2376007Y-4304099D01*
G01X2376032Y-4303949D01*
G01X2376476Y-4301473D01*
G01X2376507Y-4301318D01*
G01X2377027Y-4298857D01*
G01X2377064Y-4298697D01*
G01X2377663Y-4296254D01*
G01X2377702Y-4296104D01*
G01X2378375Y-4293681D01*
G01X2378419Y-4293532D01*
G01X2379166Y-4291130D01*
G01X2379215Y-4290979D01*
G01X2380035Y-4288602D01*
G01X2380092Y-4288447D01*
G01X2380988Y-4286098D01*
G01X2381045Y-4285956D01*
G01X2382013Y-4283632D01*
G01X2382074Y-4283490D01*
G01X2383110Y-4281199D01*
G01X2383180Y-4281051D01*
G01X2384290Y-4278793D01*
G01X2384361Y-4278654D01*
G01X2385540Y-4276431D01*
G01X2385617Y-4276292D01*
G01X2386864Y-4274107D01*
G01X2386943Y-4273974D01*
G01X2388256Y-4271828D01*
G01X2388341Y-4271693D01*
G01X2389721Y-4269590D01*
G01X2389808Y-4269461D01*
G01X2391251Y-4267401D01*
G01X2391346Y-4267269D01*
G01X2392855Y-4265255D01*
G01X2392949Y-4265133D01*
G01X2394516Y-4263167D01*
G01X2394616Y-4263046D01*
G01X2396244Y-4261128D01*
G01X2396350Y-4261007D01*
G01X2398039Y-4259140D01*
G01X2398144Y-4259028D01*
G01X2399886Y-4257215D01*
G01X2400001Y-4257098D01*
G01X2401802Y-4255341D01*
G01X2401913Y-4255235D01*
G01X2403765Y-4253534D01*
G01X2403885Y-4253427D01*
G01X2405790Y-4251784D01*
G01X2405913Y-4251681D01*
G01X2407869Y-4250098D01*
G01X2407987Y-4250005D01*
G01X2409989Y-4248481D01*
G01X2410123Y-4248383D01*
G01X2412172Y-4246925D01*
G01X2412297Y-4246839D01*
G01X2414390Y-4245442D01*
G01X2414526Y-4245354D01*
G01X2416659Y-4244026D01*
G01X2416793Y-4243946D01*
G01X2418969Y-4242681D01*
G01X2419106Y-4242604D01*
G01X2421318Y-4241408D01*
G01X2421463Y-4241333D01*
G01X2423714Y-4240207D01*
G01X2423853Y-4240140D01*
G01X2426136Y-4239084D01*
G01X2426280Y-4239020D01*
G01X2428593Y-4238035D01*
G01X2428743Y-4237974D01*
G01X2431088Y-4237062D01*
G01X2431231Y-4237008D01*
G01X2433601Y-4236168D01*
G01X2433752Y-4236117D01*
G01X2436150Y-4235350D01*
G01X2436303Y-4235303D01*
G01X2438721Y-4234612D01*
G01X2438871Y-4234572D01*
G01X2441309Y-4233955D01*
G01X2441463Y-4233918D01*
G01X2443920Y-4233377D01*
G01X2444080Y-4233345D01*
G01X2446554Y-4232882D01*
G01X2446702Y-4232857D01*
G01X2449186Y-4232468D01*
G01X2449347Y-4232446D01*
G01X2451843Y-4232136D01*
G01X2451998Y-4232119D01*
G01X2454502Y-4231886D01*
G01X2454657Y-4231874D01*
G01X2457169Y-4231716D01*
G01X2457334Y-4231708D01*
G01X2459848Y-4231632D01*
G01X2460003Y-4231630D01*
G01X2462517Y-4231630D01*
G01X2462672Y-4231632D01*
G01X2465186Y-4231708D01*
G01X2465351Y-4231716D01*
G01X2467863Y-4231874D01*
G01X2468018Y-4231886D01*
G01X2470522Y-4232119D01*
G01X2470677Y-4232136D01*
G01X2473173Y-4232446D01*
G01X2473334Y-4232468D01*
G01X2475818Y-4232857D01*
G01X2475966Y-4232882D01*
G01X2478440Y-4233345D01*
G01X2478600Y-4233377D01*
G01X2481057Y-4233918D01*
G01X2481211Y-4233955D01*
G01X2483649Y-4234572D01*
G01X2483799Y-4234612D01*
G01X2486217Y-4235303D01*
G01X2486370Y-4235350D01*
G01X2488768Y-4236117D01*
G01X2488919Y-4236168D01*
G01X2491289Y-4237008D01*
G01X2491432Y-4237062D01*
G01X2493777Y-4237974D01*
G01X2493927Y-4238035D01*
G01X2496240Y-4239020D01*
G01X2496384Y-4239084D01*
G01X2498667Y-4240140D01*
G01X2498806Y-4240207D01*
G01X2501057Y-4241333D01*
G01X2501202Y-4241408D01*
G01X2503414Y-4242604D01*
G01X2503551Y-4242681D01*
G01X2505727Y-4243946D01*
G01X2505861Y-4244026D01*
G01X2507994Y-4245354D01*
G01X2508130Y-4245442D01*
G01X2510223Y-4246839D01*
G01X2510348Y-4246925D01*
G01X2512397Y-4248383D01*
G01X2512531Y-4248481D01*
G01X2514533Y-4250005D01*
G01X2514651Y-4250098D01*
G01X2516607Y-4251681D01*
G01X2516730Y-4251784D01*
G01X2518635Y-4253427D01*
G01X2518755Y-4253534D01*
G01X2520607Y-4255235D01*
G01X2520718Y-4255341D01*
G01X2522519Y-4257098D01*
G01X2522634Y-4257215D01*
G01X2524376Y-4259028D01*
G01X2524481Y-4259140D01*
G01X2526170Y-4261007D01*
G01X2526276Y-4261128D01*
G01X2527904Y-4263046D01*
G01X2528004Y-4263167D01*
G01X2529571Y-4265133D01*
G01X2529665Y-4265255D01*
G01X2531174Y-4267269D01*
G01X2531269Y-4267401D01*
G01X2532712Y-4269461D01*
G01X2532799Y-4269590D01*
G01X2534179Y-4271693D01*
G01X2534264Y-4271828D01*
G01X2535577Y-4273974D01*
G01X2535656Y-4274107D01*
G01X2536903Y-4276292D01*
G01X2536980Y-4276431D01*
G01X2538159Y-4278654D01*
G01X2538230Y-4278793D01*
G01X2539340Y-4281051D01*
G01X2539410Y-4281199D01*
G01X2540446Y-4283490D01*
G01X2540507Y-4283632D01*
G01X2541475Y-4285956D01*
G01X2541532Y-4286098D01*
G01X2542428Y-4288447D01*
G01X2542485Y-4288602D01*
G01X2543305Y-4290979D01*
G01X2543354Y-4291130D01*
G01X2544101Y-4293532D01*
G01X2544145Y-4293681D01*
G01X2544818Y-4296104D01*
G01X2544857Y-4296254D01*
G01X2545456Y-4298697D01*
G01X2545493Y-4298857D01*
G01X2546013Y-4301318D01*
G01X2546044Y-4301473D01*
G01X2546488Y-4303949D01*
G01X2546513Y-4304099D01*
G01X2546884Y-4306588D01*
G01X2546905Y-4306752D01*
G01X2547195Y-4309249D01*
G01X2547210Y-4309404D01*
G01X2547424Y-4311911D01*
G01X2547435Y-4312065D01*
G01X2547572Y-4314577D01*
G01X2547578Y-4314737D01*
G37*
G36*
G01X2547578Y-4060737D02*
G01X2547636Y-4063252D01*
G01X2547638Y-4063411D01*
G01X2547617Y-4065928D01*
G01X2547614Y-4066083D01*
G01X2547517Y-4068595D01*
G01X2547509Y-4068755D01*
G01X2547333Y-4071264D01*
G01X2547320Y-4071418D01*
G01X2547069Y-4073923D01*
G01X2547050Y-4074083D01*
G01X2546720Y-4076577D01*
G01X2546697Y-4076732D01*
G01X2546291Y-4079213D01*
G01X2546262Y-4079373D01*
G01X2545777Y-4081841D01*
G01X2545745Y-4081991D01*
G01X2545186Y-4084444D01*
G01X2545148Y-4084599D01*
G01X2544513Y-4087033D01*
G01X2544471Y-4087187D01*
G01X2543759Y-4089600D01*
G01X2543713Y-4089749D01*
G01X2542928Y-4092139D01*
G01X2542876Y-4092289D01*
G01X2542018Y-4094653D01*
G01X2541961Y-4094803D01*
G01X2541029Y-4097139D01*
G01X2540970Y-4097280D01*
G01X2539970Y-4099586D01*
G01X2539903Y-4099733D01*
G01X2538829Y-4102009D01*
G01X2538758Y-4102154D01*
G01X2537612Y-4104394D01*
G01X2537541Y-4104528D01*
G01X2536329Y-4106733D01*
G01X2536249Y-4106874D01*
G01X2534969Y-4109038D01*
G01X2534888Y-4109169D01*
G01X2533542Y-4111295D01*
G01X2533454Y-4111429D01*
G01X2532042Y-4113512D01*
G01X2531951Y-4113642D01*
G01X2530475Y-4115679D01*
G01X2530383Y-4115803D01*
G01X2528846Y-4117794D01*
G01X2528743Y-4117923D01*
G01X2527143Y-4119863D01*
G01X2527044Y-4119981D01*
G01X2525385Y-4121873D01*
G01X2525280Y-4121989D01*
G01X2523565Y-4123828D01*
G01X2523457Y-4123941D01*
G01X2521684Y-4125729D01*
G01X2521569Y-4125841D01*
G01X2519743Y-4127571D01*
G01X2519625Y-4127679D01*
G01X2517745Y-4129351D01*
G01X2517629Y-4129451D01*
G01X2515701Y-4131064D01*
G01X2515579Y-4131163D01*
G01X2513601Y-4132717D01*
G01X2513472Y-4132815D01*
G01X2511445Y-4134306D01*
G01X2511318Y-4134396D01*
G01X2509248Y-4135824D01*
G01X2509116Y-4135912D01*
G01X2507000Y-4137276D01*
G01X2506863Y-4137361D01*
G01X2504707Y-4138656D01*
G01X2504577Y-4138732D01*
G01X2502382Y-4139964D01*
G01X2502241Y-4140040D01*
G01X2500010Y-4141201D01*
G01X2499864Y-4141274D01*
G01X2497596Y-4142364D01*
G01X2497458Y-4142428D01*
G01X2495159Y-4143449D01*
G01X2495015Y-4143510D01*
G01X2492686Y-4144460D01*
G01X2492537Y-4144518D01*
G01X2490180Y-4145395D01*
G01X2490029Y-4145448D01*
G01X2487644Y-4146251D01*
G01X2487495Y-4146298D01*
G01X2485087Y-4147027D01*
G01X2484938Y-4147070D01*
G01X2482510Y-4147725D01*
G01X2482355Y-4147764D01*
G01X2479907Y-4148343D01*
G01X2479753Y-4148377D01*
G01X2477289Y-4148880D01*
G01X2477134Y-4148909D01*
G01X2474655Y-4149336D01*
G01X2474495Y-4149361D01*
G01X2472004Y-4149709D01*
G01X2471849Y-4149728D01*
G01X2469347Y-4150000D01*
G01X2469193Y-4150014D01*
G01X2466686Y-4150210D01*
G01X2466526Y-4150220D01*
G01X2464011Y-4150337D01*
G01X2463852Y-4150342D01*
G01X2461337Y-4150380D01*
G01X2461183Y-4150380D01*
G01X2458668Y-4150342D01*
G01X2458509Y-4150337D01*
G01X2455994Y-4150220D01*
G01X2455834Y-4150210D01*
G01X2453327Y-4150014D01*
G01X2453173Y-4150000D01*
G01X2450671Y-4149728D01*
G01X2450516Y-4149709D01*
G01X2448025Y-4149361D01*
G01X2447865Y-4149336D01*
G01X2445386Y-4148909D01*
G01X2445231Y-4148880D01*
G01X2442767Y-4148377D01*
G01X2442613Y-4148343D01*
G01X2440165Y-4147764D01*
G01X2440010Y-4147725D01*
G01X2437582Y-4147070D01*
G01X2437433Y-4147027D01*
G01X2435025Y-4146298D01*
G01X2434876Y-4146251D01*
G01X2432491Y-4145448D01*
G01X2432340Y-4145395D01*
G01X2429983Y-4144518D01*
G01X2429834Y-4144460D01*
G01X2427505Y-4143510D01*
G01X2427361Y-4143449D01*
G01X2425062Y-4142428D01*
G01X2424924Y-4142364D01*
G01X2422656Y-4141274D01*
G01X2422510Y-4141201D01*
G01X2420279Y-4140040D01*
G01X2420138Y-4139964D01*
G01X2417943Y-4138732D01*
G01X2417813Y-4138656D01*
G01X2415657Y-4137361D01*
G01X2415520Y-4137276D01*
G01X2413404Y-4135912D01*
G01X2413272Y-4135824D01*
G01X2411202Y-4134396D01*
G01X2411075Y-4134306D01*
G01X2409048Y-4132815D01*
G01X2408919Y-4132717D01*
G01X2406941Y-4131163D01*
G01X2406819Y-4131064D01*
G01X2404891Y-4129451D01*
G01X2404775Y-4129351D01*
G01X2402895Y-4127679D01*
G01X2402777Y-4127571D01*
G01X2400951Y-4125841D01*
G01X2400836Y-4125729D01*
G01X2399063Y-4123941D01*
G01X2398955Y-4123828D01*
G01X2397240Y-4121989D01*
G01X2397135Y-4121873D01*
G01X2395476Y-4119981D01*
G01X2395377Y-4119863D01*
G01X2393777Y-4117923D01*
G01X2393674Y-4117794D01*
G01X2392137Y-4115803D01*
G01X2392045Y-4115679D01*
G01X2390569Y-4113642D01*
G01X2390478Y-4113512D01*
G01X2389066Y-4111429D01*
G01X2388978Y-4111295D01*
G01X2387632Y-4109169D01*
G01X2387551Y-4109038D01*
G01X2386271Y-4106874D01*
G01X2386191Y-4106733D01*
G01X2384979Y-4104528D01*
G01X2384908Y-4104394D01*
G01X2383762Y-4102154D01*
G01X2383691Y-4102009D01*
G01X2382617Y-4099733D01*
G01X2382550Y-4099586D01*
G01X2381550Y-4097280D01*
G01X2381491Y-4097139D01*
G01X2380559Y-4094803D01*
G01X2380502Y-4094653D01*
G01X2379644Y-4092289D01*
G01X2379592Y-4092139D01*
G01X2378807Y-4089749D01*
G01X2378761Y-4089600D01*
G01X2378049Y-4087187D01*
G01X2378007Y-4087033D01*
G01X2377372Y-4084599D01*
G01X2377334Y-4084444D01*
G01X2376775Y-4081991D01*
G01X2376743Y-4081841D01*
G01X2376258Y-4079373D01*
G01X2376229Y-4079213D01*
G01X2375823Y-4076732D01*
G01X2375800Y-4076577D01*
G01X2375470Y-4074083D01*
G01X2375451Y-4073923D01*
G01X2375200Y-4071418D01*
G01X2375187Y-4071264D01*
G01X2375011Y-4068755D01*
G01X2375003Y-4068595D01*
G01X2374906Y-4066083D01*
G01X2374903Y-4065928D01*
G01X2374882Y-4063411D01*
G01X2374884Y-4063252D01*
G01X2374942Y-4060737D01*
G01X2374948Y-4060577D01*
G01X2375085Y-4058065D01*
G01X2375096Y-4057911D01*
G01X2375310Y-4055404D01*
G01X2375325Y-4055249D01*
G01X2375615Y-4052752D01*
G01X2375636Y-4052588D01*
G01X2376007Y-4050099D01*
G01X2376032Y-4049949D01*
G01X2376476Y-4047473D01*
G01X2376507Y-4047318D01*
G01X2377027Y-4044857D01*
G01X2377064Y-4044697D01*
G01X2377663Y-4042254D01*
G01X2377702Y-4042104D01*
G01X2378375Y-4039681D01*
G01X2378419Y-4039532D01*
G01X2379166Y-4037130D01*
G01X2379215Y-4036979D01*
G01X2380035Y-4034602D01*
G01X2380092Y-4034447D01*
G01X2380988Y-4032098D01*
G01X2381045Y-4031956D01*
G01X2382013Y-4029632D01*
G01X2382074Y-4029490D01*
G01X2383110Y-4027199D01*
G01X2383180Y-4027051D01*
G01X2384290Y-4024793D01*
G01X2384361Y-4024654D01*
G01X2385540Y-4022431D01*
G01X2385617Y-4022292D01*
G01X2386864Y-4020107D01*
G01X2386943Y-4019974D01*
G01X2388256Y-4017828D01*
G01X2388341Y-4017693D01*
G01X2389721Y-4015590D01*
G01X2389808Y-4015461D01*
G01X2391251Y-4013401D01*
G01X2391346Y-4013269D01*
G01X2392855Y-4011255D01*
G01X2392949Y-4011133D01*
G01X2394516Y-4009167D01*
G01X2394616Y-4009046D01*
G01X2396244Y-4007128D01*
G01X2396350Y-4007007D01*
G01X2398039Y-4005140D01*
G01X2398144Y-4005028D01*
G01X2399886Y-4003215D01*
G01X2400001Y-4003098D01*
G01X2401802Y-4001341D01*
G01X2401913Y-4001235D01*
G01X2403765Y-3999534D01*
G01X2403885Y-3999427D01*
G01X2405790Y-3997784D01*
G01X2405913Y-3997681D01*
G01X2407869Y-3996098D01*
G01X2407987Y-3996005D01*
G01X2409989Y-3994481D01*
G01X2410123Y-3994383D01*
G01X2412172Y-3992925D01*
G01X2412297Y-3992839D01*
G01X2414390Y-3991442D01*
G01X2414526Y-3991354D01*
G01X2416659Y-3990026D01*
G01X2416793Y-3989946D01*
G01X2418969Y-3988681D01*
G01X2419106Y-3988604D01*
G01X2421318Y-3987408D01*
G01X2421463Y-3987333D01*
G01X2423714Y-3986207D01*
G01X2423853Y-3986140D01*
G01X2426136Y-3985084D01*
G01X2426280Y-3985020D01*
G01X2428593Y-3984035D01*
G01X2428743Y-3983974D01*
G01X2431088Y-3983062D01*
G01X2431231Y-3983008D01*
G01X2433601Y-3982168D01*
G01X2433752Y-3982117D01*
G01X2436150Y-3981350D01*
G01X2436303Y-3981303D01*
G01X2438721Y-3980612D01*
G01X2438871Y-3980572D01*
G01X2441309Y-3979955D01*
G01X2441463Y-3979918D01*
G01X2443920Y-3979377D01*
G01X2444080Y-3979345D01*
G01X2446554Y-3978882D01*
G01X2446702Y-3978857D01*
G01X2449186Y-3978468D01*
G01X2449347Y-3978446D01*
G01X2451843Y-3978136D01*
G01X2451998Y-3978119D01*
G01X2454502Y-3977886D01*
G01X2454657Y-3977874D01*
G01X2457169Y-3977716D01*
G01X2457334Y-3977708D01*
G01X2459848Y-3977632D01*
G01X2460003Y-3977630D01*
G01X2462517Y-3977630D01*
G01X2462672Y-3977632D01*
G01X2465186Y-3977708D01*
G01X2465351Y-3977716D01*
G01X2467863Y-3977874D01*
G01X2468018Y-3977886D01*
G01X2470522Y-3978119D01*
G01X2470677Y-3978136D01*
G01X2473173Y-3978446D01*
G01X2473334Y-3978468D01*
G01X2475818Y-3978857D01*
G01X2475966Y-3978882D01*
G01X2478440Y-3979345D01*
G01X2478600Y-3979377D01*
G01X2481057Y-3979918D01*
G01X2481211Y-3979955D01*
G01X2483649Y-3980572D01*
G01X2483799Y-3980612D01*
G01X2486217Y-3981303D01*
G01X2486370Y-3981350D01*
G01X2488768Y-3982117D01*
G01X2488919Y-3982168D01*
G01X2491289Y-3983008D01*
G01X2491432Y-3983062D01*
G01X2493777Y-3983974D01*
G01X2493927Y-3984035D01*
G01X2496240Y-3985020D01*
G01X2496384Y-3985084D01*
G01X2498667Y-3986140D01*
G01X2498806Y-3986207D01*
G01X2501057Y-3987333D01*
G01X2501202Y-3987408D01*
G01X2503414Y-3988604D01*
G01X2503551Y-3988681D01*
G01X2505727Y-3989946D01*
G01X2505861Y-3990026D01*
G01X2507994Y-3991354D01*
G01X2508130Y-3991442D01*
G01X2510223Y-3992839D01*
G01X2510348Y-3992925D01*
G01X2512397Y-3994383D01*
G01X2512531Y-3994481D01*
G01X2514533Y-3996005D01*
G01X2514651Y-3996098D01*
G01X2516607Y-3997681D01*
G01X2516730Y-3997784D01*
G01X2518635Y-3999427D01*
G01X2518755Y-3999534D01*
G01X2520607Y-4001235D01*
G01X2520718Y-4001341D01*
G01X2522519Y-4003098D01*
G01X2522634Y-4003215D01*
G01X2524376Y-4005028D01*
G01X2524481Y-4005140D01*
G01X2526170Y-4007007D01*
G01X2526276Y-4007128D01*
G01X2527904Y-4009046D01*
G01X2528004Y-4009167D01*
G01X2529571Y-4011133D01*
G01X2529665Y-4011255D01*
G01X2531174Y-4013269D01*
G01X2531269Y-4013401D01*
G01X2532712Y-4015461D01*
G01X2532799Y-4015590D01*
G01X2534179Y-4017693D01*
G01X2534264Y-4017828D01*
G01X2535577Y-4019974D01*
G01X2535656Y-4020107D01*
G01X2536903Y-4022292D01*
G01X2536980Y-4022431D01*
G01X2538159Y-4024654D01*
G01X2538230Y-4024793D01*
G01X2539340Y-4027051D01*
G01X2539410Y-4027199D01*
G01X2540446Y-4029490D01*
G01X2540507Y-4029632D01*
G01X2541475Y-4031956D01*
G01X2541532Y-4032098D01*
G01X2542428Y-4034447D01*
G01X2542485Y-4034602D01*
G01X2543305Y-4036979D01*
G01X2543354Y-4037130D01*
G01X2544101Y-4039532D01*
G01X2544145Y-4039681D01*
G01X2544818Y-4042104D01*
G01X2544857Y-4042254D01*
G01X2545456Y-4044697D01*
G01X2545493Y-4044857D01*
G01X2546013Y-4047318D01*
G01X2546044Y-4047473D01*
G01X2546488Y-4049949D01*
G01X2546513Y-4050099D01*
G01X2546884Y-4052588D01*
G01X2546905Y-4052752D01*
G01X2547195Y-4055249D01*
G01X2547210Y-4055404D01*
G01X2547424Y-4057911D01*
G01X2547435Y-4058065D01*
G01X2547572Y-4060577D01*
G01X2547578Y-4060737D01*
G37*
G36*
G01X2293578Y-4314737D02*
G01X2293636Y-4317252D01*
G01X2293638Y-4317411D01*
G01X2293617Y-4319928D01*
G01X2293614Y-4320083D01*
G01X2293517Y-4322595D01*
G01X2293509Y-4322755D01*
G01X2293333Y-4325264D01*
G01X2293320Y-4325418D01*
G01X2293069Y-4327923D01*
G01X2293050Y-4328083D01*
G01X2292720Y-4330577D01*
G01X2292697Y-4330732D01*
G01X2292291Y-4333213D01*
G01X2292262Y-4333373D01*
G01X2291777Y-4335841D01*
G01X2291745Y-4335991D01*
G01X2291186Y-4338444D01*
G01X2291148Y-4338599D01*
G01X2290513Y-4341033D01*
G01X2290471Y-4341187D01*
G01X2289759Y-4343600D01*
G01X2289713Y-4343749D01*
G01X2288928Y-4346139D01*
G01X2288876Y-4346289D01*
G01X2288018Y-4348653D01*
G01X2287961Y-4348803D01*
G01X2287029Y-4351139D01*
G01X2286970Y-4351280D01*
G01X2285970Y-4353586D01*
G01X2285903Y-4353733D01*
G01X2284829Y-4356009D01*
G01X2284758Y-4356154D01*
G01X2283612Y-4358394D01*
G01X2283541Y-4358528D01*
G01X2282329Y-4360733D01*
G01X2282249Y-4360874D01*
G01X2280969Y-4363038D01*
G01X2280888Y-4363169D01*
G01X2279542Y-4365295D01*
G01X2279454Y-4365429D01*
G01X2278042Y-4367512D01*
G01X2277951Y-4367642D01*
G01X2276475Y-4369679D01*
G01X2276383Y-4369803D01*
G01X2274846Y-4371794D01*
G01X2274743Y-4371923D01*
G01X2273143Y-4373863D01*
G01X2273044Y-4373981D01*
G01X2271385Y-4375873D01*
G01X2271280Y-4375989D01*
G01X2269565Y-4377828D01*
G01X2269457Y-4377941D01*
G01X2267684Y-4379729D01*
G01X2267569Y-4379841D01*
G01X2265743Y-4381571D01*
G01X2265625Y-4381679D01*
G01X2263745Y-4383351D01*
G01X2263629Y-4383451D01*
G01X2261701Y-4385064D01*
G01X2261579Y-4385163D01*
G01X2259601Y-4386717D01*
G01X2259472Y-4386815D01*
G01X2257445Y-4388306D01*
G01X2257318Y-4388396D01*
G01X2255248Y-4389824D01*
G01X2255116Y-4389912D01*
G01X2253000Y-4391276D01*
G01X2252863Y-4391361D01*
G01X2250707Y-4392656D01*
G01X2250577Y-4392732D01*
G01X2248382Y-4393964D01*
G01X2248241Y-4394040D01*
G01X2246010Y-4395201D01*
G01X2245864Y-4395274D01*
G01X2243596Y-4396364D01*
G01X2243458Y-4396428D01*
G01X2241159Y-4397449D01*
G01X2241015Y-4397510D01*
G01X2238686Y-4398460D01*
G01X2238537Y-4398518D01*
G01X2236180Y-4399395D01*
G01X2236029Y-4399448D01*
G01X2233644Y-4400251D01*
G01X2233495Y-4400298D01*
G01X2231087Y-4401027D01*
G01X2230938Y-4401070D01*
G01X2228510Y-4401725D01*
G01X2228355Y-4401764D01*
G01X2225907Y-4402343D01*
G01X2225753Y-4402377D01*
G01X2223289Y-4402880D01*
G01X2223134Y-4402909D01*
G01X2220655Y-4403336D01*
G01X2220495Y-4403361D01*
G01X2218004Y-4403709D01*
G01X2217849Y-4403728D01*
G01X2215347Y-4404000D01*
G01X2215193Y-4404014D01*
G01X2212686Y-4404210D01*
G01X2212526Y-4404220D01*
G01X2210011Y-4404337D01*
G01X2209852Y-4404342D01*
G01X2207337Y-4404380D01*
G01X2207183Y-4404380D01*
G01X2204668Y-4404342D01*
G01X2204509Y-4404337D01*
G01X2201994Y-4404220D01*
G01X2201834Y-4404210D01*
G01X2199327Y-4404014D01*
G01X2199173Y-4404000D01*
G01X2196671Y-4403728D01*
G01X2196516Y-4403709D01*
G01X2194025Y-4403361D01*
G01X2193865Y-4403336D01*
G01X2191386Y-4402909D01*
G01X2191231Y-4402880D01*
G01X2188767Y-4402377D01*
G01X2188613Y-4402343D01*
G01X2186165Y-4401764D01*
G01X2186010Y-4401725D01*
G01X2183582Y-4401070D01*
G01X2183433Y-4401027D01*
G01X2181025Y-4400298D01*
G01X2180876Y-4400251D01*
G01X2178491Y-4399448D01*
G01X2178340Y-4399395D01*
G01X2175983Y-4398518D01*
G01X2175834Y-4398460D01*
G01X2173505Y-4397510D01*
G01X2173361Y-4397449D01*
G01X2171062Y-4396428D01*
G01X2170924Y-4396364D01*
G01X2168656Y-4395274D01*
G01X2168510Y-4395201D01*
G01X2166279Y-4394040D01*
G01X2166138Y-4393964D01*
G01X2163943Y-4392732D01*
G01X2163813Y-4392656D01*
G01X2161657Y-4391361D01*
G01X2161520Y-4391276D01*
G01X2159404Y-4389912D01*
G01X2159272Y-4389824D01*
G01X2157202Y-4388396D01*
G01X2157075Y-4388306D01*
G01X2155048Y-4386815D01*
G01X2154919Y-4386717D01*
G01X2152941Y-4385163D01*
G01X2152819Y-4385064D01*
G01X2150891Y-4383451D01*
G01X2150775Y-4383351D01*
G01X2148895Y-4381679D01*
G01X2148777Y-4381571D01*
G01X2146951Y-4379841D01*
G01X2146836Y-4379729D01*
G01X2145063Y-4377941D01*
G01X2144955Y-4377828D01*
G01X2143240Y-4375989D01*
G01X2143135Y-4375873D01*
G01X2141476Y-4373981D01*
G01X2141377Y-4373863D01*
G01X2139777Y-4371923D01*
G01X2139674Y-4371794D01*
G01X2138137Y-4369803D01*
G01X2138045Y-4369679D01*
G01X2136569Y-4367642D01*
G01X2136478Y-4367512D01*
G01X2135066Y-4365429D01*
G01X2134978Y-4365295D01*
G01X2133632Y-4363169D01*
G01X2133551Y-4363038D01*
G01X2132271Y-4360874D01*
G01X2132191Y-4360733D01*
G01X2130979Y-4358528D01*
G01X2130908Y-4358394D01*
G01X2129762Y-4356154D01*
G01X2129691Y-4356009D01*
G01X2128617Y-4353733D01*
G01X2128550Y-4353586D01*
G01X2127550Y-4351280D01*
G01X2127491Y-4351139D01*
G01X2126559Y-4348803D01*
G01X2126502Y-4348653D01*
G01X2125644Y-4346289D01*
G01X2125592Y-4346139D01*
G01X2124807Y-4343749D01*
G01X2124761Y-4343600D01*
G01X2124049Y-4341187D01*
G01X2124007Y-4341033D01*
G01X2123372Y-4338599D01*
G01X2123334Y-4338444D01*
G01X2122775Y-4335991D01*
G01X2122743Y-4335841D01*
G01X2122258Y-4333373D01*
G01X2122229Y-4333213D01*
G01X2121823Y-4330732D01*
G01X2121800Y-4330577D01*
G01X2121470Y-4328083D01*
G01X2121451Y-4327923D01*
G01X2121200Y-4325418D01*
G01X2121187Y-4325264D01*
G01X2121011Y-4322755D01*
G01X2121003Y-4322595D01*
G01X2120906Y-4320083D01*
G01X2120903Y-4319928D01*
G01X2120882Y-4317411D01*
G01X2120884Y-4317252D01*
G01X2120942Y-4314737D01*
G01X2120948Y-4314577D01*
G01X2121085Y-4312065D01*
G01X2121096Y-4311911D01*
G01X2121310Y-4309404D01*
G01X2121325Y-4309249D01*
G01X2121615Y-4306752D01*
G01X2121636Y-4306588D01*
G01X2122007Y-4304099D01*
G01X2122032Y-4303949D01*
G01X2122476Y-4301473D01*
G01X2122507Y-4301318D01*
G01X2123027Y-4298857D01*
G01X2123064Y-4298697D01*
G01X2123663Y-4296254D01*
G01X2123702Y-4296104D01*
G01X2124375Y-4293681D01*
G01X2124419Y-4293532D01*
G01X2125166Y-4291130D01*
G01X2125215Y-4290979D01*
G01X2126035Y-4288602D01*
G01X2126092Y-4288447D01*
G01X2126988Y-4286098D01*
G01X2127045Y-4285956D01*
G01X2128013Y-4283632D01*
G01X2128074Y-4283490D01*
G01X2129110Y-4281199D01*
G01X2129180Y-4281051D01*
G01X2130290Y-4278793D01*
G01X2130361Y-4278654D01*
G01X2131540Y-4276431D01*
G01X2131617Y-4276292D01*
G01X2132864Y-4274107D01*
G01X2132943Y-4273974D01*
G01X2134256Y-4271828D01*
G01X2134341Y-4271693D01*
G01X2135721Y-4269590D01*
G01X2135808Y-4269461D01*
G01X2137251Y-4267401D01*
G01X2137346Y-4267269D01*
G01X2138855Y-4265255D01*
G01X2138949Y-4265133D01*
G01X2140516Y-4263167D01*
G01X2140616Y-4263046D01*
G01X2142244Y-4261128D01*
G01X2142350Y-4261007D01*
G01X2144039Y-4259140D01*
G01X2144144Y-4259028D01*
G01X2145886Y-4257215D01*
G01X2146001Y-4257098D01*
G01X2147802Y-4255341D01*
G01X2147913Y-4255235D01*
G01X2149765Y-4253534D01*
G01X2149885Y-4253427D01*
G01X2151790Y-4251784D01*
G01X2151913Y-4251681D01*
G01X2153869Y-4250098D01*
G01X2153987Y-4250005D01*
G01X2155989Y-4248481D01*
G01X2156123Y-4248383D01*
G01X2158172Y-4246925D01*
G01X2158297Y-4246839D01*
G01X2160390Y-4245442D01*
G01X2160526Y-4245354D01*
G01X2162659Y-4244026D01*
G01X2162793Y-4243946D01*
G01X2164969Y-4242681D01*
G01X2165106Y-4242604D01*
G01X2167318Y-4241408D01*
G01X2167463Y-4241333D01*
G01X2169714Y-4240207D01*
G01X2169853Y-4240140D01*
G01X2172136Y-4239084D01*
G01X2172280Y-4239020D01*
G01X2174593Y-4238035D01*
G01X2174743Y-4237974D01*
G01X2177088Y-4237062D01*
G01X2177231Y-4237008D01*
G01X2179601Y-4236168D01*
G01X2179752Y-4236117D01*
G01X2182150Y-4235350D01*
G01X2182303Y-4235303D01*
G01X2184721Y-4234612D01*
G01X2184871Y-4234572D01*
G01X2187309Y-4233955D01*
G01X2187463Y-4233918D01*
G01X2189920Y-4233377D01*
G01X2190080Y-4233345D01*
G01X2192554Y-4232882D01*
G01X2192702Y-4232857D01*
G01X2195186Y-4232468D01*
G01X2195347Y-4232446D01*
G01X2197843Y-4232136D01*
G01X2197998Y-4232119D01*
G01X2200502Y-4231886D01*
G01X2200657Y-4231874D01*
G01X2203169Y-4231716D01*
G01X2203334Y-4231708D01*
G01X2205848Y-4231632D01*
G01X2206003Y-4231630D01*
G01X2208517Y-4231630D01*
G01X2208672Y-4231632D01*
G01X2211186Y-4231708D01*
G01X2211351Y-4231716D01*
G01X2213863Y-4231874D01*
G01X2214018Y-4231886D01*
G01X2216522Y-4232119D01*
G01X2216677Y-4232136D01*
G01X2219173Y-4232446D01*
G01X2219334Y-4232468D01*
G01X2221818Y-4232857D01*
G01X2221966Y-4232882D01*
G01X2224440Y-4233345D01*
G01X2224600Y-4233377D01*
G01X2227057Y-4233918D01*
G01X2227211Y-4233955D01*
G01X2229649Y-4234572D01*
G01X2229799Y-4234612D01*
G01X2232217Y-4235303D01*
G01X2232370Y-4235350D01*
G01X2234768Y-4236117D01*
G01X2234919Y-4236168D01*
G01X2237289Y-4237008D01*
G01X2237432Y-4237062D01*
G01X2239777Y-4237974D01*
G01X2239927Y-4238035D01*
G01X2242240Y-4239020D01*
G01X2242384Y-4239084D01*
G01X2244667Y-4240140D01*
G01X2244806Y-4240207D01*
G01X2247057Y-4241333D01*
G01X2247202Y-4241408D01*
G01X2249414Y-4242604D01*
G01X2249551Y-4242681D01*
G01X2251727Y-4243946D01*
G01X2251861Y-4244026D01*
G01X2253994Y-4245354D01*
G01X2254130Y-4245442D01*
G01X2256223Y-4246839D01*
G01X2256348Y-4246925D01*
G01X2258397Y-4248383D01*
G01X2258531Y-4248481D01*
G01X2260533Y-4250005D01*
G01X2260651Y-4250098D01*
G01X2262607Y-4251681D01*
G01X2262730Y-4251784D01*
G01X2264635Y-4253427D01*
G01X2264755Y-4253534D01*
G01X2266607Y-4255235D01*
G01X2266718Y-4255341D01*
G01X2268519Y-4257098D01*
G01X2268634Y-4257215D01*
G01X2270376Y-4259028D01*
G01X2270481Y-4259140D01*
G01X2272170Y-4261007D01*
G01X2272276Y-4261128D01*
G01X2273904Y-4263046D01*
G01X2274004Y-4263167D01*
G01X2275571Y-4265133D01*
G01X2275665Y-4265255D01*
G01X2277174Y-4267269D01*
G01X2277269Y-4267401D01*
G01X2278712Y-4269461D01*
G01X2278799Y-4269590D01*
G01X2280179Y-4271693D01*
G01X2280264Y-4271828D01*
G01X2281577Y-4273974D01*
G01X2281656Y-4274107D01*
G01X2282903Y-4276292D01*
G01X2282980Y-4276431D01*
G01X2284159Y-4278654D01*
G01X2284230Y-4278793D01*
G01X2285340Y-4281051D01*
G01X2285410Y-4281199D01*
G01X2286446Y-4283490D01*
G01X2286507Y-4283632D01*
G01X2287475Y-4285956D01*
G01X2287532Y-4286098D01*
G01X2288428Y-4288447D01*
G01X2288485Y-4288602D01*
G01X2289305Y-4290979D01*
G01X2289354Y-4291130D01*
G01X2290101Y-4293532D01*
G01X2290145Y-4293681D01*
G01X2290818Y-4296104D01*
G01X2290857Y-4296254D01*
G01X2291456Y-4298697D01*
G01X2291493Y-4298857D01*
G01X2292013Y-4301318D01*
G01X2292044Y-4301473D01*
G01X2292488Y-4303949D01*
G01X2292513Y-4304099D01*
G01X2292884Y-4306588D01*
G01X2292905Y-4306752D01*
G01X2293195Y-4309249D01*
G01X2293210Y-4309404D01*
G01X2293424Y-4311911D01*
G01X2293435Y-4312065D01*
G01X2293572Y-4314577D01*
G01X2293578Y-4314737D01*
G37*
G36*
G01X2293578Y-4060737D02*
G01X2293636Y-4063252D01*
G01X2293638Y-4063411D01*
G01X2293617Y-4065928D01*
G01X2293614Y-4066083D01*
G01X2293517Y-4068595D01*
G01X2293509Y-4068755D01*
G01X2293333Y-4071264D01*
G01X2293320Y-4071418D01*
G01X2293069Y-4073923D01*
G01X2293050Y-4074083D01*
G01X2292720Y-4076577D01*
G01X2292697Y-4076732D01*
G01X2292291Y-4079213D01*
G01X2292262Y-4079373D01*
G01X2291777Y-4081841D01*
G01X2291745Y-4081991D01*
G01X2291186Y-4084444D01*
G01X2291148Y-4084599D01*
G01X2290513Y-4087033D01*
G01X2290471Y-4087187D01*
G01X2289759Y-4089600D01*
G01X2289713Y-4089749D01*
G01X2288928Y-4092139D01*
G01X2288876Y-4092289D01*
G01X2288018Y-4094653D01*
G01X2287961Y-4094803D01*
G01X2287029Y-4097139D01*
G01X2286970Y-4097280D01*
G01X2285970Y-4099586D01*
G01X2285903Y-4099733D01*
G01X2284829Y-4102009D01*
G01X2284758Y-4102154D01*
G01X2283612Y-4104394D01*
G01X2283541Y-4104528D01*
G01X2282329Y-4106733D01*
G01X2282249Y-4106874D01*
G01X2280969Y-4109038D01*
G01X2280888Y-4109169D01*
G01X2279542Y-4111295D01*
G01X2279454Y-4111429D01*
G01X2278042Y-4113512D01*
G01X2277951Y-4113642D01*
G01X2276475Y-4115679D01*
G01X2276383Y-4115803D01*
G01X2274846Y-4117794D01*
G01X2274743Y-4117923D01*
G01X2273143Y-4119863D01*
G01X2273044Y-4119981D01*
G01X2271385Y-4121873D01*
G01X2271280Y-4121989D01*
G01X2269565Y-4123828D01*
G01X2269457Y-4123941D01*
G01X2267684Y-4125729D01*
G01X2267569Y-4125841D01*
G01X2265743Y-4127571D01*
G01X2265625Y-4127679D01*
G01X2263745Y-4129351D01*
G01X2263629Y-4129451D01*
G01X2261701Y-4131064D01*
G01X2261579Y-4131163D01*
G01X2259601Y-4132717D01*
G01X2259472Y-4132815D01*
G01X2257445Y-4134306D01*
G01X2257318Y-4134396D01*
G01X2255248Y-4135824D01*
G01X2255116Y-4135912D01*
G01X2253000Y-4137276D01*
G01X2252863Y-4137361D01*
G01X2250707Y-4138656D01*
G01X2250577Y-4138732D01*
G01X2248382Y-4139964D01*
G01X2248241Y-4140040D01*
G01X2246010Y-4141201D01*
G01X2245864Y-4141274D01*
G01X2243596Y-4142364D01*
G01X2243458Y-4142428D01*
G01X2241159Y-4143449D01*
G01X2241015Y-4143510D01*
G01X2238686Y-4144460D01*
G01X2238537Y-4144518D01*
G01X2236180Y-4145395D01*
G01X2236029Y-4145448D01*
G01X2233644Y-4146251D01*
G01X2233495Y-4146298D01*
G01X2231087Y-4147027D01*
G01X2230938Y-4147070D01*
G01X2228510Y-4147725D01*
G01X2228355Y-4147764D01*
G01X2225907Y-4148343D01*
G01X2225753Y-4148377D01*
G01X2223289Y-4148880D01*
G01X2223134Y-4148909D01*
G01X2220655Y-4149336D01*
G01X2220495Y-4149361D01*
G01X2218004Y-4149709D01*
G01X2217849Y-4149728D01*
G01X2215347Y-4150000D01*
G01X2215193Y-4150014D01*
G01X2212686Y-4150210D01*
G01X2212526Y-4150220D01*
G01X2210011Y-4150337D01*
G01X2209852Y-4150342D01*
G01X2207337Y-4150380D01*
G01X2207183Y-4150380D01*
G01X2204668Y-4150342D01*
G01X2204509Y-4150337D01*
G01X2201994Y-4150220D01*
G01X2201834Y-4150210D01*
G01X2199327Y-4150014D01*
G01X2199173Y-4150000D01*
G01X2196671Y-4149728D01*
G01X2196516Y-4149709D01*
G01X2194025Y-4149361D01*
G01X2193865Y-4149336D01*
G01X2191386Y-4148909D01*
G01X2191231Y-4148880D01*
G01X2188767Y-4148377D01*
G01X2188613Y-4148343D01*
G01X2186165Y-4147764D01*
G01X2186010Y-4147725D01*
G01X2183582Y-4147070D01*
G01X2183433Y-4147027D01*
G01X2181025Y-4146298D01*
G01X2180876Y-4146251D01*
G01X2178491Y-4145448D01*
G01X2178340Y-4145395D01*
G01X2175983Y-4144518D01*
G01X2175834Y-4144460D01*
G01X2173505Y-4143510D01*
G01X2173361Y-4143449D01*
G01X2171062Y-4142428D01*
G01X2170924Y-4142364D01*
G01X2168656Y-4141274D01*
G01X2168510Y-4141201D01*
G01X2166279Y-4140040D01*
G01X2166138Y-4139964D01*
G01X2163943Y-4138732D01*
G01X2163813Y-4138656D01*
G01X2161657Y-4137361D01*
G01X2161520Y-4137276D01*
G01X2159404Y-4135912D01*
G01X2159272Y-4135824D01*
G01X2157202Y-4134396D01*
G01X2157075Y-4134306D01*
G01X2155048Y-4132815D01*
G01X2154919Y-4132717D01*
G01X2152941Y-4131163D01*
G01X2152819Y-4131064D01*
G01X2150891Y-4129451D01*
G01X2150775Y-4129351D01*
G01X2148895Y-4127679D01*
G01X2148777Y-4127571D01*
G01X2146951Y-4125841D01*
G01X2146836Y-4125729D01*
G01X2145063Y-4123941D01*
G01X2144955Y-4123828D01*
G01X2143240Y-4121989D01*
G01X2143135Y-4121873D01*
G01X2141476Y-4119981D01*
G01X2141377Y-4119863D01*
G01X2139777Y-4117923D01*
G01X2139674Y-4117794D01*
G01X2138137Y-4115803D01*
G01X2138045Y-4115679D01*
G01X2136569Y-4113642D01*
G01X2136478Y-4113512D01*
G01X2135066Y-4111429D01*
G01X2134978Y-4111295D01*
G01X2133632Y-4109169D01*
G01X2133551Y-4109038D01*
G01X2132271Y-4106874D01*
G01X2132191Y-4106733D01*
G01X2130979Y-4104528D01*
G01X2130908Y-4104394D01*
G01X2129762Y-4102154D01*
G01X2129691Y-4102009D01*
G01X2128617Y-4099733D01*
G01X2128550Y-4099586D01*
G01X2127550Y-4097280D01*
G01X2127491Y-4097139D01*
G01X2126559Y-4094803D01*
G01X2126502Y-4094653D01*
G01X2125644Y-4092289D01*
G01X2125592Y-4092139D01*
G01X2124807Y-4089749D01*
G01X2124761Y-4089600D01*
G01X2124049Y-4087187D01*
G01X2124007Y-4087033D01*
G01X2123372Y-4084599D01*
G01X2123334Y-4084444D01*
G01X2122775Y-4081991D01*
G01X2122743Y-4081841D01*
G01X2122258Y-4079373D01*
G01X2122229Y-4079213D01*
G01X2121823Y-4076732D01*
G01X2121800Y-4076577D01*
G01X2121470Y-4074083D01*
G01X2121451Y-4073923D01*
G01X2121200Y-4071418D01*
G01X2121187Y-4071264D01*
G01X2121011Y-4068755D01*
G01X2121003Y-4068595D01*
G01X2120906Y-4066083D01*
G01X2120903Y-4065928D01*
G01X2120882Y-4063411D01*
G01X2120884Y-4063252D01*
G01X2120942Y-4060737D01*
G01X2120948Y-4060577D01*
G01X2121085Y-4058065D01*
G01X2121096Y-4057911D01*
G01X2121310Y-4055404D01*
G01X2121325Y-4055249D01*
G01X2121615Y-4052752D01*
G01X2121636Y-4052588D01*
G01X2122007Y-4050099D01*
G01X2122032Y-4049949D01*
G01X2122476Y-4047473D01*
G01X2122507Y-4047318D01*
G01X2123027Y-4044857D01*
G01X2123064Y-4044697D01*
G01X2123663Y-4042254D01*
G01X2123702Y-4042104D01*
G01X2124375Y-4039681D01*
G01X2124419Y-4039532D01*
G01X2125166Y-4037130D01*
G01X2125215Y-4036979D01*
G01X2126035Y-4034602D01*
G01X2126092Y-4034447D01*
G01X2126988Y-4032098D01*
G01X2127045Y-4031956D01*
G01X2128013Y-4029632D01*
G01X2128074Y-4029490D01*
G01X2129110Y-4027199D01*
G01X2129180Y-4027051D01*
G01X2130290Y-4024793D01*
G01X2130361Y-4024654D01*
G01X2131540Y-4022431D01*
G01X2131617Y-4022292D01*
G01X2132864Y-4020107D01*
G01X2132943Y-4019974D01*
G01X2134256Y-4017828D01*
G01X2134341Y-4017693D01*
G01X2135721Y-4015590D01*
G01X2135808Y-4015461D01*
G01X2137251Y-4013401D01*
G01X2137346Y-4013269D01*
G01X2138855Y-4011255D01*
G01X2138949Y-4011133D01*
G01X2140516Y-4009167D01*
G01X2140616Y-4009046D01*
G01X2142244Y-4007128D01*
G01X2142350Y-4007007D01*
G01X2144039Y-4005140D01*
G01X2144144Y-4005028D01*
G01X2145886Y-4003215D01*
G01X2146001Y-4003098D01*
G01X2147802Y-4001341D01*
G01X2147913Y-4001235D01*
G01X2149765Y-3999534D01*
G01X2149885Y-3999427D01*
G01X2151790Y-3997784D01*
G01X2151913Y-3997681D01*
G01X2153869Y-3996098D01*
G01X2153987Y-3996005D01*
G01X2155989Y-3994481D01*
G01X2156123Y-3994383D01*
G01X2158172Y-3992925D01*
G01X2158297Y-3992839D01*
G01X2160390Y-3991442D01*
G01X2160526Y-3991354D01*
G01X2162659Y-3990026D01*
G01X2162793Y-3989946D01*
G01X2164969Y-3988681D01*
G01X2165106Y-3988604D01*
G01X2167318Y-3987408D01*
G01X2167463Y-3987333D01*
G01X2169714Y-3986207D01*
G01X2169853Y-3986140D01*
G01X2172136Y-3985084D01*
G01X2172280Y-3985020D01*
G01X2174593Y-3984035D01*
G01X2174743Y-3983974D01*
G01X2177088Y-3983062D01*
G01X2177231Y-3983008D01*
G01X2179601Y-3982168D01*
G01X2179752Y-3982117D01*
G01X2182150Y-3981350D01*
G01X2182303Y-3981303D01*
G01X2184721Y-3980612D01*
G01X2184871Y-3980572D01*
G01X2187309Y-3979955D01*
G01X2187463Y-3979918D01*
G01X2189920Y-3979377D01*
G01X2190080Y-3979345D01*
G01X2192554Y-3978882D01*
G01X2192702Y-3978857D01*
G01X2195186Y-3978468D01*
G01X2195347Y-3978446D01*
G01X2197843Y-3978136D01*
G01X2197998Y-3978119D01*
G01X2200502Y-3977886D01*
G01X2200657Y-3977874D01*
G01X2203169Y-3977716D01*
G01X2203334Y-3977708D01*
G01X2205848Y-3977632D01*
G01X2206003Y-3977630D01*
G01X2208517Y-3977630D01*
G01X2208672Y-3977632D01*
G01X2211186Y-3977708D01*
G01X2211351Y-3977716D01*
G01X2213863Y-3977874D01*
G01X2214018Y-3977886D01*
G01X2216522Y-3978119D01*
G01X2216677Y-3978136D01*
G01X2219173Y-3978446D01*
G01X2219334Y-3978468D01*
G01X2221818Y-3978857D01*
G01X2221966Y-3978882D01*
G01X2224440Y-3979345D01*
G01X2224600Y-3979377D01*
G01X2227057Y-3979918D01*
G01X2227211Y-3979955D01*
G01X2229649Y-3980572D01*
G01X2229799Y-3980612D01*
G01X2232217Y-3981303D01*
G01X2232370Y-3981350D01*
G01X2234768Y-3982117D01*
G01X2234919Y-3982168D01*
G01X2237289Y-3983008D01*
G01X2237432Y-3983062D01*
G01X2239777Y-3983974D01*
G01X2239927Y-3984035D01*
G01X2242240Y-3985020D01*
G01X2242384Y-3985084D01*
G01X2244667Y-3986140D01*
G01X2244806Y-3986207D01*
G01X2247057Y-3987333D01*
G01X2247202Y-3987408D01*
G01X2249414Y-3988604D01*
G01X2249551Y-3988681D01*
G01X2251727Y-3989946D01*
G01X2251861Y-3990026D01*
G01X2253994Y-3991354D01*
G01X2254130Y-3991442D01*
G01X2256223Y-3992839D01*
G01X2256348Y-3992925D01*
G01X2258397Y-3994383D01*
G01X2258531Y-3994481D01*
G01X2260533Y-3996005D01*
G01X2260651Y-3996098D01*
G01X2262607Y-3997681D01*
G01X2262730Y-3997784D01*
G01X2264635Y-3999427D01*
G01X2264755Y-3999534D01*
G01X2266607Y-4001235D01*
G01X2266718Y-4001341D01*
G01X2268519Y-4003098D01*
G01X2268634Y-4003215D01*
G01X2270376Y-4005028D01*
G01X2270481Y-4005140D01*
G01X2272170Y-4007007D01*
G01X2272276Y-4007128D01*
G01X2273904Y-4009046D01*
G01X2274004Y-4009167D01*
G01X2275571Y-4011133D01*
G01X2275665Y-4011255D01*
G01X2277174Y-4013269D01*
G01X2277269Y-4013401D01*
G01X2278712Y-4015461D01*
G01X2278799Y-4015590D01*
G01X2280179Y-4017693D01*
G01X2280264Y-4017828D01*
G01X2281577Y-4019974D01*
G01X2281656Y-4020107D01*
G01X2282903Y-4022292D01*
G01X2282980Y-4022431D01*
G01X2284159Y-4024654D01*
G01X2284230Y-4024793D01*
G01X2285340Y-4027051D01*
G01X2285410Y-4027199D01*
G01X2286446Y-4029490D01*
G01X2286507Y-4029632D01*
G01X2287475Y-4031956D01*
G01X2287532Y-4032098D01*
G01X2288428Y-4034447D01*
G01X2288485Y-4034602D01*
G01X2289305Y-4036979D01*
G01X2289354Y-4037130D01*
G01X2290101Y-4039532D01*
G01X2290145Y-4039681D01*
G01X2290818Y-4042104D01*
G01X2290857Y-4042254D01*
G01X2291456Y-4044697D01*
G01X2291493Y-4044857D01*
G01X2292013Y-4047318D01*
G01X2292044Y-4047473D01*
G01X2292488Y-4049949D01*
G01X2292513Y-4050099D01*
G01X2292884Y-4052588D01*
G01X2292905Y-4052752D01*
G01X2293195Y-4055249D01*
G01X2293210Y-4055404D01*
G01X2293424Y-4057911D01*
G01X2293435Y-4058065D01*
G01X2293572Y-4060577D01*
G01X2293578Y-4060737D01*
G37*
G54D18*
G01X622300Y-2844800D03*
G01X622300Y-2590800D03*
G01X2492299Y-2844800D03*
G01X2492299Y-2590800D03*
G54D19*
G01X622300Y-1693672D03*
G01X622300Y-1439799D03*
G01X2492299Y-1693672D03*
G01X2492299Y-1439799D03*
G54D10*
G01X1016000Y-6121400D03*
G01X1524000Y-6121400D03*
G01X2032000Y-6121400D03*
G01X2540000Y-6121400D03*
G54D20*
G01X2616200Y-3429000D03*
G01X2362200Y-3429000D03*
G01X2108200Y-3429000D03*
G01X1854200Y-3429000D03*
G01X1600200Y-3429000D03*
G01X1346200Y-3429000D03*
G54D21*
G01X1092200Y-3429000D03*
G54D20*
G01X2616200Y-4953000D03*
G01X2362200Y-4953000D03*
G01X2108200Y-4953000D03*
G01X1854200Y-4953000D03*
G01X1600200Y-4953000D03*
G01X1346200Y-4953000D03*
G54D21*
G01X1092200Y-4953000D03*
G04 Pad End*

M02*

