G04 Layer: TopSilkscreenLayer*
G04 EasyEDA Pro v2.2.40.8, 2025-09-14 15:16:37*
G04 Gerber Generator version 0.3*
G04 Scale: 100 percent, Rotated: No, Reflected: No*
G04 Dimensions in millimeters*
G04 Leading zeros omitted, absolute positions, 4 integers and 5 decimals*
G04 Generated by one-click*
%FSLAX45Y45*%
%MOMM*%
%ADD10C,0.203*%
%ADD11C,0.1524*%
%ADD12C,0.2032*%
%ADD13C,0.254*%
%ADD14C,0.1*%
%ADD15C,0.2032*%
G75*


G04 Text Start*
G54D10*
G01X1766824Y52578D02*
G01X1766824Y56642D01*
G01X1770888Y64770D01*
G01X1774952Y68834D01*
G01X1783080Y72898D01*
G01X1799336Y72898D01*
G01X1807210Y68834D01*
G01X1811274Y64770D01*
G01X1815338Y56642D01*
G01X1815338Y48514D01*
G01X1811274Y40386D01*
G01X1803400Y28194D01*
G01X1762760Y-12192D01*
G01X1819402Y-12192D01*
G01X1899666Y72898D02*
G01X1859280Y16002D01*
G01X1919986Y16002D01*
G01X1899666Y72898D02*
G01X1899666Y-12192D01*
G01X1959864Y72898D02*
G01X1992122Y-12192D01*
G01X2024634Y72898D02*
G01X1992122Y-12192D01*
G01X2295144Y72898D02*
G01X2282952Y68834D01*
G01X2274824Y56642D01*
G01X2270760Y36322D01*
G01X2270760Y24130D01*
G01X2274824Y3810D01*
G01X2282952Y-8128D01*
G01X2295144Y-12192D01*
G01X2303272Y-12192D01*
G01X2315210Y-8128D01*
G01X2323338Y3810D01*
G01X2327402Y24130D01*
G01X2327402Y36322D01*
G01X2323338Y56642D01*
G01X2315210Y68834D01*
G01X2303272Y72898D01*
G01X2295144Y72898D01*
G01X2367280Y72898D02*
G01X2399538Y-12192D01*
G01X2432050Y72898D02*
G01X2399538Y-12192D01*
G01X1398524Y-6754622D02*
G01X1398524Y-6750558D01*
G01X1402588Y-6742430D01*
G01X1406652Y-6738366D01*
G01X1414780Y-6734302D01*
G01X1431036Y-6734302D01*
G01X1438910Y-6738366D01*
G01X1442974Y-6742430D01*
G01X1447038Y-6750558D01*
G01X1447038Y-6758686D01*
G01X1442974Y-6766814D01*
G01X1435100Y-6779006D01*
G01X1394460Y-6819392D01*
G01X1451102Y-6819392D01*
G01X1531366Y-6734302D02*
G01X1490980Y-6791198D01*
G01X1551686Y-6791198D01*
G01X1531366Y-6734302D02*
G01X1531366Y-6819392D01*
G01X1591564Y-6734302D02*
G01X1623822Y-6819392D01*
G01X1656334Y-6734302D02*
G01X1623822Y-6819392D01*
G01X948944Y-6734302D02*
G01X936752Y-6738366D01*
G01X928624Y-6750558D01*
G01X924560Y-6770878D01*
G01X924560Y-6783070D01*
G01X928624Y-6803390D01*
G01X936752Y-6815328D01*
G01X948944Y-6819392D01*
G01X957072Y-6819392D01*
G01X969010Y-6815328D01*
G01X977138Y-6803390D01*
G01X981202Y-6783070D01*
G01X981202Y-6770878D01*
G01X977138Y-6750558D01*
G01X969010Y-6738366D01*
G01X957072Y-6734302D01*
G01X948944Y-6734302D01*
G01X1021080Y-6734302D02*
G01X1053338Y-6819392D01*
G01X1085850Y-6734302D02*
G01X1053338Y-6819392D01*
G01X2448560Y-6734302D02*
G01X2448560Y-6819392D01*
G01X2448560Y-6734302D02*
G01X2485136Y-6734302D01*
G01X2497074Y-6738366D01*
G01X2501138Y-6742430D01*
G01X2505202Y-6750558D01*
G01X2505202Y-6762750D01*
G01X2501138Y-6770878D01*
G01X2497074Y-6774942D01*
G01X2485136Y-6779006D01*
G01X2448560Y-6779006D01*
G01X2545080Y-6734302D02*
G01X2565146Y-6819392D01*
G01X2585466Y-6734302D02*
G01X2565146Y-6819392D01*
G01X2585466Y-6734302D02*
G01X2605786Y-6819392D01*
G01X2626106Y-6734302D02*
G01X2605786Y-6819392D01*
G01X2665984Y-6734302D02*
G01X2665984Y-6819392D01*
G01X2665984Y-6734302D02*
G01X2698242Y-6819392D01*
G01X2730754Y-6734302D02*
G01X2698242Y-6819392D01*
G01X2730754Y-6734302D02*
G01X2730754Y-6819392D01*
G01X1870202Y-6746494D02*
G01X1862074Y-6738366D01*
G01X1850136Y-6734302D01*
G01X1833880Y-6734302D01*
G01X1821688Y-6738366D01*
G01X1813560Y-6746494D01*
G01X1813560Y-6754622D01*
G01X1817624Y-6762750D01*
G01X1821688Y-6766814D01*
G01X1829816Y-6770878D01*
G01X1854200Y-6779006D01*
G01X1862074Y-6783070D01*
G01X1866138Y-6787134D01*
G01X1870202Y-6795262D01*
G01X1870202Y-6807200D01*
G01X1862074Y-6815328D01*
G01X1850136Y-6819392D01*
G01X1833880Y-6819392D01*
G01X1821688Y-6815328D01*
G01X1813560Y-6807200D01*
G01X1910080Y-6734302D02*
G01X1910080Y-6819392D01*
G01X1910080Y-6734302D02*
G01X1946402Y-6734302D01*
G01X1958594Y-6738366D01*
G01X1962658Y-6742430D01*
G01X1966722Y-6750558D01*
G01X1966722Y-6762750D01*
G01X1962658Y-6770878D01*
G01X1958594Y-6774942D01*
G01X1946402Y-6779006D01*
G01X1910080Y-6779006D01*
G01X2006600Y-6734302D02*
G01X2006600Y-6819392D01*
G01X2006600Y-6734302D02*
G01X2059178Y-6734302D01*
G01X2006600Y-6774942D02*
G01X2038858Y-6774942D01*
G01X2006600Y-6819392D02*
G01X2059178Y-6819392D01*
G01X2099056Y-6734302D02*
G01X2099056Y-6819392D01*
G01X2099056Y-6734302D02*
G01X2151634Y-6734302D01*
G01X2099056Y-6774942D02*
G01X2131314Y-6774942D01*
G01X2099056Y-6819392D02*
G01X2151634Y-6819392D01*
G01X2191512Y-6734302D02*
G01X2191512Y-6819392D01*
G01X2191512Y-6734302D02*
G01X2219706Y-6734302D01*
G01X2231898Y-6738366D01*
G01X2240026Y-6746494D01*
G01X2244090Y-6754622D01*
G01X2248154Y-6766814D01*
G01X2248154Y-6787134D01*
G01X2244090Y-6799326D01*
G01X2240026Y-6807200D01*
G01X2231898Y-6815328D01*
G01X2219706Y-6819392D01*
G01X2191512Y-6819392D01*
G54D11*
G01X2115820Y-642366D02*
G01X2115820Y-707390D01*
G01X2115820Y-642366D02*
G01X2143760Y-642366D01*
G01X2152904Y-645414D01*
G01X2155952Y-648462D01*
G01X2159254Y-654812D01*
G01X2159254Y-663956D01*
G01X2155952Y-670052D01*
G01X2152904Y-673354D01*
G01X2143760Y-676402D01*
G01X2115820Y-676402D01*
G01X2189480Y-654812D02*
G01X2195576Y-651510D01*
G01X2204720Y-642366D01*
G01X2204720Y-707390D01*
G01X153162Y-3868166D02*
G01X147066Y-3871214D01*
G01X140716Y-3877310D01*
G01X137668Y-3883660D01*
G01X134620Y-3892804D01*
G01X134620Y-3908298D01*
G01X137668Y-3917696D01*
G01X140716Y-3923792D01*
G01X147066Y-3930142D01*
G01X153162Y-3933190D01*
G01X165608Y-3933190D01*
G01X171704Y-3930142D01*
G01X178054Y-3923792D01*
G01X181102Y-3917696D01*
G01X184150Y-3908298D01*
G01X184150Y-3892804D01*
G01X181102Y-3883660D01*
G01X178054Y-3877310D01*
G01X171704Y-3871214D01*
G01X165608Y-3868166D01*
G01X153162Y-3868166D01*
G01X162560Y-3920744D02*
G01X181102Y-3939286D01*
G01X214376Y-3880612D02*
G01X220472Y-3877310D01*
G01X229616Y-3868166D01*
G01X229616Y-3933190D01*
G01X1099820Y-5442966D02*
G01X1099820Y-5507990D01*
G01X1099820Y-5442966D02*
G01X1127760Y-5442966D01*
G01X1136904Y-5446014D01*
G01X1139952Y-5449062D01*
G01X1143254Y-5455412D01*
G01X1143254Y-5461508D01*
G01X1139952Y-5467604D01*
G01X1136904Y-5470652D01*
G01X1127760Y-5473954D01*
G01X1099820Y-5473954D01*
G01X1121410Y-5473954D02*
G01X1143254Y-5507990D01*
G01X1204214Y-5442966D02*
G01X1173480Y-5486146D01*
G01X1219708Y-5486146D01*
G01X1204214Y-5442966D02*
G01X1204214Y-5507990D01*
G01X337820Y-4553966D02*
G01X337820Y-4618990D01*
G01X337820Y-4553966D02*
G01X365760Y-4553966D01*
G01X374904Y-4557014D01*
G01X377952Y-4560062D01*
G01X381254Y-4566412D01*
G01X381254Y-4572508D01*
G01X377952Y-4578604D01*
G01X374904Y-4581652D01*
G01X365760Y-4584954D01*
G01X337820Y-4584954D01*
G01X359410Y-4584954D02*
G01X381254Y-4618990D01*
G01X448564Y-4553966D02*
G01X417576Y-4553966D01*
G01X414528Y-4581652D01*
G01X417576Y-4578604D01*
G01X426720Y-4575556D01*
G01X436118Y-4575556D01*
G01X445516Y-4578604D01*
G01X451612Y-4584954D01*
G01X454660Y-4594098D01*
G01X454660Y-4600448D01*
G01X451612Y-4609592D01*
G01X445516Y-4615942D01*
G01X436118Y-4618990D01*
G01X426720Y-4618990D01*
G01X417576Y-4615942D01*
G01X414528Y-4612640D01*
G01X411480Y-4606544D01*
G01X2319020Y-5430012D02*
G01X2325116Y-5426710D01*
G01X2334514Y-5417566D01*
G01X2334514Y-5482590D01*
G01X2383282Y-5417566D02*
G01X2373884Y-5420614D01*
G01X2367788Y-5430012D01*
G01X2364740Y-5445252D01*
G01X2364740Y-5454650D01*
G01X2367788Y-5470144D01*
G01X2373884Y-5479542D01*
G01X2383282Y-5482590D01*
G01X2389378Y-5482590D01*
G01X2398776Y-5479542D01*
G01X2404872Y-5470144D01*
G01X2407920Y-5454650D01*
G01X2407920Y-5445252D01*
G01X2404872Y-5430012D01*
G01X2398776Y-5420614D01*
G01X2389378Y-5417566D01*
G01X2383282Y-5417566D01*
G01X2438146Y-5417566D02*
G01X2438146Y-5482590D01*
G01X2468880Y-5439156D02*
G01X2438146Y-5470144D01*
G01X2450338Y-5457698D02*
G01X2472182Y-5482590D01*
G01X2502408Y-5482590D02*
G01X2523998Y-5482590D01*
G01X2517648Y-5473192D01*
G01X2511552Y-5464048D01*
G01X2508504Y-5454650D01*
G01X2508504Y-5445252D01*
G01X2511552Y-5436108D01*
G01X2514600Y-5430012D01*
G01X2520950Y-5423662D01*
G01X2527046Y-5420614D01*
G01X2539492Y-5420614D01*
G01X2545588Y-5423662D01*
G01X2551938Y-5430012D01*
G01X2554986Y-5436108D01*
G01X2558034Y-5445252D01*
G01X2558034Y-5454650D01*
G01X2554986Y-5464048D01*
G01X2548636Y-5473192D01*
G01X2542540Y-5482590D01*
G01X2564130Y-5482590D01*
G01X1684020Y-4096766D02*
G01X1684020Y-4143248D01*
G01X1687068Y-4152392D01*
G01X1693418Y-4158742D01*
G01X1702562Y-4161790D01*
G01X1708912Y-4161790D01*
G01X1718056Y-4158742D01*
G01X1724152Y-4152392D01*
G01X1727454Y-4143248D01*
G01X1727454Y-4096766D01*
G01X1757680Y-4109212D02*
G01X1763776Y-4105910D01*
G01X1772920Y-4096766D01*
G01X1772920Y-4161790D01*
G54D12*
G01X874497Y-2809697D02*
G01X959587Y-2809697D01*
G01X874497Y-2769819D02*
G01X959587Y-2769819D01*
G01X874497Y-2769819D02*
G01X959587Y-2713177D01*
G01X874497Y-2713177D02*
G01X959587Y-2713177D01*
G01X886689Y-2636977D02*
G01X959587Y-2636977D01*
G01X923265Y-2673299D02*
G01X923265Y-2600401D01*
G01X2224354Y-2905201D02*
G01X2228418Y-2913329D01*
G01X2236546Y-2921457D01*
G01X2244674Y-2925521D01*
G01X2256866Y-2929585D01*
G01X2277186Y-2929585D01*
G01X2289378Y-2925521D01*
G01X2297252Y-2921457D01*
G01X2305380Y-2913329D01*
G01X2309444Y-2905201D01*
G01X2309444Y-2888945D01*
G01X2305380Y-2881071D01*
G01X2297252Y-2872943D01*
G01X2289378Y-2868879D01*
G01X2277186Y-2864815D01*
G01X2256866Y-2864815D01*
G01X2244674Y-2868879D01*
G01X2236546Y-2872943D01*
G01X2228418Y-2881071D01*
G01X2224354Y-2888945D01*
G01X2224354Y-2905201D01*
G01X2224354Y-2824937D02*
G01X2285314Y-2824937D01*
G01X2297252Y-2820873D01*
G01X2305380Y-2812999D01*
G01X2309444Y-2800807D01*
G01X2309444Y-2792679D01*
G01X2305380Y-2780487D01*
G01X2297252Y-2772359D01*
G01X2285314Y-2768295D01*
G01X2224354Y-2768295D01*
G01X2224354Y-2700223D02*
G01X2309444Y-2700223D01*
G01X2224354Y-2728417D02*
G01X2224354Y-2671775D01*
G01X2236546Y-2595575D02*
G01X2309444Y-2595575D01*
G01X2273122Y-2631897D02*
G01X2273122Y-2558999D01*
G01X2224456Y-1830299D02*
G01X2228520Y-1838427D01*
G01X2236648Y-1846555D01*
G01X2244776Y-1850619D01*
G01X2256968Y-1854683D01*
G01X2277288Y-1854683D01*
G01X2289480Y-1850619D01*
G01X2297354Y-1846555D01*
G01X2305482Y-1838427D01*
G01X2309546Y-1830299D01*
G01X2309546Y-1814043D01*
G01X2305482Y-1806169D01*
G01X2297354Y-1798041D01*
G01X2289480Y-1793977D01*
G01X2277288Y-1789913D01*
G01X2256968Y-1789913D01*
G01X2244776Y-1793977D01*
G01X2236648Y-1798041D01*
G01X2228520Y-1806169D01*
G01X2224456Y-1814043D01*
G01X2224456Y-1830299D01*
G01X2224456Y-1750035D02*
G01X2285416Y-1750035D01*
G01X2297354Y-1745971D01*
G01X2305482Y-1738097D01*
G01X2309546Y-1725905D01*
G01X2309546Y-1717777D01*
G01X2305482Y-1705585D01*
G01X2297354Y-1697457D01*
G01X2285416Y-1693393D01*
G01X2224456Y-1693393D01*
G01X2224456Y-1625321D02*
G01X2309546Y-1625321D01*
G01X2224456Y-1653515D02*
G01X2224456Y-1596873D01*
G01X2273224Y-1556995D02*
G01X2273224Y-1484097D01*
G01X884352Y-1644599D02*
G01X969442Y-1644599D01*
G01X884352Y-1604721D02*
G01X969442Y-1604721D01*
G01X884352Y-1604721D02*
G01X969442Y-1548079D01*
G01X884352Y-1548079D02*
G01X969442Y-1548079D01*
G01X933120Y-1508201D02*
G01X933120Y-1435303D01*
G54D11*
G01X1607820Y-2166366D02*
G01X1607820Y-2212848D01*
G01X1610868Y-2221992D01*
G01X1617218Y-2228342D01*
G01X1626362Y-2231390D01*
G01X1632712Y-2231390D01*
G01X1641856Y-2228342D01*
G01X1647952Y-2221992D01*
G01X1651254Y-2212848D01*
G01X1651254Y-2166366D01*
G01X1684528Y-2181860D02*
G01X1684528Y-2178812D01*
G01X1687576Y-2172462D01*
G01X1690624Y-2169414D01*
G01X1696720Y-2166366D01*
G01X1709166Y-2166366D01*
G01X1715516Y-2169414D01*
G01X1718564Y-2172462D01*
G01X1721612Y-2178812D01*
G01X1721612Y-2184908D01*
G01X1718564Y-2191004D01*
G01X1712214Y-2200402D01*
G01X1681480Y-2231390D01*
G01X1724660Y-2231390D01*
G01X1709420Y-6306566D02*
G01X1709420Y-6353048D01*
G01X1712468Y-6362192D01*
G01X1718818Y-6368542D01*
G01X1727962Y-6371590D01*
G01X1734312Y-6371590D01*
G01X1743456Y-6368542D01*
G01X1749552Y-6362192D01*
G01X1752854Y-6353048D01*
G01X1752854Y-6306566D01*
G01X1789176Y-6306566D02*
G01X1823212Y-6306566D01*
G01X1804670Y-6331204D01*
G01X1813814Y-6331204D01*
G01X1820164Y-6334252D01*
G01X1823212Y-6337554D01*
G01X1826260Y-6346698D01*
G01X1826260Y-6353048D01*
G01X1823212Y-6362192D01*
G01X1817116Y-6368542D01*
G01X1807718Y-6371590D01*
G01X1798320Y-6371590D01*
G01X1789176Y-6368542D01*
G01X1786128Y-6365240D01*
G01X1783080Y-6359144D01*
G04 Text End*

G04 PolygonModel Start*
G54D13*
G01X2654300Y-83947D02*
G01X1640916Y-83947D01*
G01X1578300Y-1022701D02*
G01X1638300Y-997697D01*
G01X1578300Y-922701D02*
G01X1578300Y-1022701D01*
G01X1638300Y-947707D02*
G01X1578300Y-922701D01*
G01X1638300Y-197698D02*
G01X1578300Y-172700D01*
G01X1578300Y-172700D02*
G01X1578300Y-272702D01*
G01X1578300Y-272702D02*
G01X1638300Y-247711D01*
G01X2654300Y-1099947D02*
G01X1640916Y-1099947D01*
G01X2654300Y-1099947D02*
G01X2654300Y-83947D01*
G01X1638300Y-1099693D02*
G01X1638300Y-83693D01*
G36*
G01X1846301Y-97701D02*
G01X1946300Y-97701D01*
G01X1946300Y-297701D01*
G01X1996300Y-297701D01*
G01X1896301Y-397700D01*
G01X1796301Y-297701D01*
G01X1846301Y-297701D01*
G01X1846301Y-97701D01*
G37*
G36*
G01X2354301Y-97701D02*
G01X2454300Y-97701D01*
G01X2454300Y-297701D01*
G01X2504300Y-297701D01*
G01X2404301Y-397700D01*
G01X2304301Y-297701D01*
G01X2354301Y-297701D01*
G01X2354301Y-97701D01*
G37*
G01X530987Y-3358007D02*
G01X530987Y-3753993D01*
G01X255016Y-3341624D02*
G03X259855Y-3773147I125982J-214376D01*
G01X1457960Y-5341620D02*
G01X1457960Y-5580380D01*
G01X1457960Y-5580380D02*
G01X828040Y-5580380D01*
G01X828040Y-5580380D02*
G01X828040Y-5341620D01*
G01X828040Y-5341620D02*
G01X1457960Y-5341620D01*
G01X261620Y-4257040D02*
G01X500380Y-4257040D01*
G01X500380Y-4257040D02*
G01X500380Y-4886960D01*
G01X500380Y-4886960D02*
G01X261620Y-4886960D01*
G01X261620Y-4886960D02*
G01X261620Y-4257040D01*
G01X2727960Y-5341620D02*
G01X2727960Y-5580380D01*
G01X2727960Y-5580380D02*
G01X2098040Y-5580380D01*
G01X2098040Y-5580380D02*
G01X2098040Y-5341620D01*
G01X2098040Y-5341620D02*
G01X2727960Y-5341620D01*
G01X2890520Y-4671057D02*
G01X2313534Y-4671002D01*
G01X2313534Y-4671002D02*
G01X2313534Y-3710986D01*
G01X2313534Y-3710986D02*
G01X2890520Y-3710935D01*
G01X791126Y-4890994D02*
G01X791126Y-3490999D01*
G01X2891122Y-4890994D02*
G01X2891122Y-3490999D01*
G01X791126Y-3490999D02*
G01X791126Y-3478609D01*
G01X791126Y-4890994D02*
G01X791126Y-4903384D01*
G01X2891122Y-3490999D02*
G01X2891122Y-3472779D01*
G01X2891122Y-4890994D02*
G01X2891122Y-4909213D01*
G01X2890520Y-3710935D02*
G01X2976877Y-3710935D01*
G01X3050543Y-3784595D02*
G01X3050543Y-4597395D01*
G01X2974343Y-4673595D02*
G01X2893063Y-4673595D01*
G01X2893060Y-4673595D02*
G02X2890520Y-4671055I0J2540D01*
G01X3050540Y-4597395D02*
G02X2974340Y-4673595I-76200J0D01*
G01X2976880Y-3710935D02*
G02X3050540Y-3784595I0J-73660D01*
G01X2891125Y-4909210D02*
G02X2733040Y-5067295I-158085J0D01*
G01X2891125Y-3472779D02*
G03X2733040Y-3314695I-158085J0D01*
G01X791129Y-4903384D02*
G03X967740Y-5079995I176611J0D01*
G01X791129Y-3478606D02*
G02X967740Y-3301995I176611J0D01*
G01X1044270Y-4419600D02*
G01X1044270Y-4724400D01*
G01X815670Y-4724400D01*
G01X815670Y-4419600D01*
G01X1044270Y-4419600D01*
G01X1044270Y-4057650D02*
G01X1044270Y-4324350D01*
G01X815670Y-4324350D01*
G01X815670Y-4057650D01*
G01X1044270Y-4057650D01*
G01X1044270Y-3657600D02*
G01X1044270Y-3968750D01*
G01X815670Y-3968750D01*
G01X815670Y-3657600D01*
G01X1044270Y-3657600D01*
G54D14*
G01X422300Y-3044800D02*
G01X422300Y-1244803D01*
G01X2722296Y-1244803D01*
G01X2722296Y-3044800D01*
G01X422300Y-3044800D01*
G54D13*
G01X2288616Y-6671399D02*
G01X2796616Y-6671399D01*
G01X2290369Y-6574511D02*
G01X2796616Y-6574511D01*
G01X2283998Y-5811401D02*
G01X2796616Y-5811401D01*
G01X2288616Y-5673649D02*
G01X2796616Y-5673649D01*
G01X2796616Y-6673647D02*
G01X2796616Y-5673649D01*
G01X2288616Y-6671399D02*
G01X764616Y-6671399D01*
G01X2283998Y-5811401D02*
G01X759998Y-5811401D01*
G01X2288616Y-5671401D02*
G01X764616Y-5671401D01*
G01X764616Y-6674637D02*
G01X764616Y-5674639D01*
G01X2290369Y-6574511D02*
G01X766369Y-6574511D01*
G01X1219200Y-3314700D02*
G01X1219200Y-3543300D01*
G01X941197Y-3309010D02*
G01X2767203Y-3309010D01*
G01X2767203Y-3549015D01*
G01X941197Y-3549015D01*
G01X941197Y-3309010D01*
G01X1219200Y-4838700D02*
G01X1219200Y-5067300D01*
G01X941197Y-4833010D02*
G01X2767203Y-4833010D01*
G01X2767203Y-5073015D01*
G01X941197Y-5073015D01*
G01X941197Y-4833010D01*

G04 Circle Start*
G01X849960Y-4191000D02*
G03X1009980Y-4191000I80010J0D01*
G03X849960Y-4191000I-80010J0D01*
G01X879958Y-3810000D02*
G03X979983Y-3810000I50013J0D01*
G03X879958Y-3810000I-50013J0D01*
G01X879958Y-4572000D02*
G03X979983Y-4572000I50013J0D01*
G03X879958Y-4572000I-50013J0D01*
G01X917270Y-4191000D02*
G03X942670Y-4191000I12700J0D01*
G03X917270Y-4191000I-12700J0D01*
G04 Circle End*

M02*

